<svg xmlns="http://www.w3.org/2000/svg" viewBox="0 0 400 400" fill="none" stroke="currentColor" stroke-width="2" stroke-linecap="round" stroke-linejoin="round">
  <!-- Left bird - full body -->
  <path d="M85 195 Q78 185 72 175 Q68 168 65 160 Q62 152 68 148 Q75 145 82 150 Q88 155 92 162" />
  <path d="M92 162 Q98 155 105 152 Q112 150 118 155 Q122 160 118 168 Q112 175 105 178 Q95 182 88 188 Q85 192 85 195" />
  <!-- Left bird body -->
  <path d="M85 195 Q82 205 80 215 Q78 228 82 238 Q88 248 98 252 Q108 254 115 248 Q122 240 122 228 Q120 215 115 205 Q110 198 105 195 Q95 190 85 195" />
  <!-- Left bird wing -->
  <path d="M82 205 Q68 198 55 195 Q42 193 32 198 Q28 202 32 208 Q38 212 48 212 Q58 210 68 208 Q78 207 85 208" />
  <path d="M32 198 Q35 205 38 208" />
  <path d="M42 196 Q44 202 46 206" />
  <path d="M55 195 Q56 200 57 204" />
  <!-- Left bird tail -->
  <path d="M88 248 Q82 260 78 272 Q75 280 72 285" />
  <path d="M95 252 Q90 262 85 272 Q82 278 80 283" />
  <path d="M78 272 Q82 274 85 272" />
  <!-- Left bird eye -->
  <circle cx="100" cy="160" r="3" />
  <circle cx="101" cy="159" r="1" />
  <!-- Left bird beak (pointing right) -->
  <path d="M118 160 Q128 155 138 152 Q130 158 122 163" />
  <!-- Left bird feet on branch -->
  <path d="M95 252 Q95 262 92 268 Q90 272 88 275" />
  <path d="M92 268 Q95 272 98 275" />
  <path d="M105 250 Q105 260 108 266 Q110 270 112 273" />
  <path d="M108 266 Q105 270 102 273" />
  <!-- Left bird feather texture -->
  <path d="M88 210 Q92 208 95 212" />
  <path d="M86 220 Q90 218 93 222" />
  <path d="M88 230 Q92 228 95 232" />
  <!-- Right bird - full body -->
  <path d="M315 195 Q322 185 328 175 Q332 168 335 160 Q338 152 332 148 Q325 145 318 150 Q312 155 308 162" />
  <path d="M308 162 Q302 155 295 152 Q288 150 282 155 Q278 160 282 168 Q288 175 295 178 Q305 182 312 188 Q315 192 315 195" />
  <!-- Right bird body -->
  <path d="M315 195 Q318 205 320 215 Q322 228 318 238 Q312 248 302 252 Q292 254 285 248 Q278 240 278 228 Q280 215 285 205 Q290 198 295 195 Q305 190 315 195" />
  <!-- Right bird wing -->
  <path d="M318 205 Q332 198 345 195 Q358 193 368 198 Q372 202 368 208 Q362 212 352 212 Q342 210 332 208 Q322 207 315 208" />
  <path d="M368 198 Q365 205 362 208" />
  <path d="M358 196 Q356 202 354 206" />
  <path d="M345 195 Q344 200 343 204" />
  <!-- Right bird tail -->
  <path d="M312 248 Q318 260 322 272 Q325 280 328 285" />
  <path d="M305 252 Q310 262 315 272 Q318 278 320 283" />
  <path d="M322 272 Q318 274 315 272" />
  <!-- Right bird eye -->
  <circle cx="300" cy="160" r="3" />
  <circle cx="299" cy="159" r="1" />
  <!-- Right bird beak (pointing left) -->
  <path d="M282 160 Q272 155 262 152 Q270 158 278 163" />
  <!-- Right bird feet on branch -->
  <path d="M305 252 Q305 262 308 268 Q310 272 312 275" />
  <path d="M308 268 Q305 272 302 275" />
  <path d="M295 250 Q295 260 292 266 Q290 270 288 273" />
  <path d="M292 266 Q295 270 298 273" />
  <!-- Right bird feather texture -->
  <path d="M312 210 Q308 208 305 212" />
  <path d="M314 220 Q310 218 307 222" />
  <path d="M312 230 Q308 228 305 232" />
  <!-- Song waves between the birds - elaborate -->
  <path d="M140 145 Q147 138 155 145 Q162 152 170 145" />
  <path d="M145 155 Q155 145 165 155 Q175 165 185 155" />
  <path d="M150 165 Q160 157 170 165 Q180 173 190 165" />
  <path d="M230 145 Q237 138 245 145 Q252 152 260 145" />
  <path d="M215 155 Q225 145 235 155 Q245 165 255 155" />
  <path d="M210 165 Q220 157 230 165 Q240 173 250 165" />
  <!-- Central song area -->
  <path d="M185 148 Q192 140 200 145 Q208 140 215 148" />
  <path d="M188 158 Q195 150 200 155 Q205 150 212 158" />
  <!-- Musical notes floating up -->
  <path d="M175 120 Q178 110 182 115" />
  <circle cx="175" cy="122" r="4" />
  <path d="M200 100 Q203 90 207 95" />
  <circle cx="200" cy="102" r="4" />
  <path d="M225 115 Q228 105 232 110" />
  <circle cx="225" cy="117" r="4" />
  <path d="M190 80 Q193 70 197 75" />
  <circle cx="190" cy="82" r="3.5" />
  <path d="M215 85 Q218 75 222 80" />
  <circle cx="215" cy="87" r="3.5" />
  <!-- Double notes -->
  <path d="M160 95 Q163 85 167 90" />
  <circle cx="160" cy="97" r="3" />
  <path d="M240 90 Q243 80 247 85" />
  <circle cx="240" cy="92" r="3" />
  <!-- Small floating notes -->
  <path d="M200 65 Q202 58 205 62" />
  <circle cx="200" cy="66" r="2.5" />
  <path d="M180 55 Q182 48 185 52" />
  <circle cx="180" cy="56" r="2.5" />
  <path d="M220 50 Q222 43 225 47" />
  <circle cx="220" cy="51" r="2.5" />
  <!-- Branch they sit on -->
  <path d="M20 280 Q60 275 100 278 Q140 280 180 276 Q220 273 260 276 Q300 280 340 277 Q360 275 380 278" />
  <!-- Branch texture -->
  <path d="M50 278 Q52 275 55 278" />
  <path d="M120 279 Q122 276 125 279" />
  <path d="M200 275 Q202 272 205 275" />
  <path d="M280 278 Q282 275 285 278" />
  <path d="M350 276 Q352 273 355 276" />
  <!-- Leaves on branch -->
  <path d="M60 275 Q55 262 48 255 Q55 260 62 268 Q65 272 63 275" />
  <path d="M62 275 Q55 263 50 258" />
  <path d="M155 278 Q150 265 143 258 Q150 263 157 271 Q160 275 158 278" />
  <path d="M157 278 Q150 266 145 261" />
  <path d="M245 276 Q250 263 257 256 Q250 261 243 269 Q240 273 242 276" />
  <path d="M243 276 Q250 264 255 259" />
  <path d="M340 277 Q335 264 328 257 Q335 262 342 270 Q345 274 343 277" />
  <path d="M342 277 Q335 265 330 260" />
  <!-- Small leaf clusters -->
  <path d="M80 276 Q76 268 72 264 Q77 267 81 272" />
  <path d="M320 278 Q324 270 328 266 Q323 269 319 274" />
  <!-- Floating feather detail -->
  <path d="M180 40 Q185 35 188 40 Q185 45 180 42" />
  <path d="M220 35 Q225 30 228 35 Q225 40 220 37" />
  <!-- Air current lines -->
  <path d="M30 310 Q60 305 90 310" />
  <path d="M310 305 Q340 300 370 305" />
  <path d="M50 330 Q80 325 110 330" />
  <path d="M290 325 Q320 320 350 325" />
</svg>
