<svg xmlns="http://www.w3.org/2000/svg" viewBox="0 0 400 400" fill="none" stroke="currentColor" stroke-width="2" stroke-linecap="round" stroke-linejoin="round">
  <!-- Open hand releasing butterflies -->
  <!-- Wrist -->
  <path d="M170 390 Q168 370 165 350 Q162 330 160 320" />
  <path d="M230 390 Q232 370 235 350 Q238 330 240 320" />
  <!-- Palm -->
  <path d="M160 320 Q155 305 152 290 Q150 278 155 268 Q162 260 172 258" />
  <path d="M240 320 Q245 305 248 290 Q250 278 245 268 Q238 260 228 258" />
  <!-- Thumb -->
  <path d="M155 290 Q148 282 142 275 Q138 270 135 262 Q133 255 138 250 Q144 248 148 252 Q152 258 155 268" />
  <!-- Index finger -->
  <path d="M172 258 Q175 245 178 232 Q180 222 182 212 Q184 205 188 200 Q193 198 196 202 Q198 208 196 218 Q194 228 192 240 Q190 250 188 258" />
  <!-- Middle finger -->
  <path d="M188 258 Q190 242 192 226 Q194 214 195 204 Q196 196 198 190 Q200 186 203 190 Q206 196 206 206 Q206 218 205 230 Q204 242 203 258" />
  <!-- Ring finger -->
  <path d="M203 258 Q206 244 208 230 Q210 218 212 208 Q214 200 217 196 Q220 194 222 198 Q224 204 222 216 Q220 228 218 242 Q216 254 215 258" />
  <!-- Pinky finger -->
  <path d="M215 258 Q220 248 224 238 Q228 228 230 220 Q232 214 235 212 Q238 212 240 216 Q240 222 238 232 Q235 244 232 256 Q230 262 228 268" />
  <!-- Finger detail lines -->
  <path d="M182 225 Q188 223 194 225" />
  <path d="M194 218 Q200 216 206 218" />
  <path d="M208 222 Q214 220 220 222" />
  <path d="M222 228 Q228 226 234 228" />
  <!-- Palm lines -->
  <path d="M158 285 Q175 278 195 280 Q215 282 235 285" />
  <path d="M160 298 Q178 292 200 294 Q222 296 240 300" />
  <!-- BUTTERFLIES - ascending from the hand -->
  <!-- Butterfly 1 - largest, nearest -->
  <path d="M185 175 Q175 160 165 150 Q158 145 162 138 Q168 132 175 140 Q180 148 185 160 L185 175" />
  <path d="M185 175 Q195 160 205 150 Q212 145 208 138 Q202 132 195 140 Q190 148 185 160" />
  <path d="M185 175 Q178 168 172 162 Q168 158 170 152 Q174 148 178 154 Q182 160 185 168" />
  <path d="M185 175 Q192 168 198 162 Q202 158 200 152 Q196 148 192 154 Q188 160 185 168" />
  <path d="M185 175 L185 185" />
  <!-- Butterfly 1 wing pattern -->
  <circle cx="170" cy="148" r="3" />
  <circle cx="200" cy="148" r="3" />
  <path d="M168 142 Q170 138 172 142" />
  <path d="M198 142 Q200 138 202 142" />
  <!-- Butterfly 2 -->
  <path d="M140 120 Q130 108 122 100 Q118 96 122 90 Q128 86 132 92 Q136 100 140 110 L140 120" />
  <path d="M140 120 Q150 108 158 100 Q162 96 158 90 Q152 86 148 92 Q144 100 140 110" />
  <path d="M140 120 Q134 112 128 106 Q124 102 128 97 Q132 94 134 100 Q138 106 140 114" />
  <path d="M140 120 Q146 112 152 106 Q156 102 152 97 Q148 94 146 100 Q142 106 140 114" />
  <path d="M140 120 L140 128" />
  <!-- Butterfly 2 wing detail -->
  <circle cx="126" cy="98" r="2.5" />
  <circle cx="154" cy="98" r="2.5" />
  <!-- Butterfly 3 -->
  <path d="M250 110 Q242 98 236 90 Q232 86 236 80 Q242 76 245 82 Q248 90 250 100 L250 110" />
  <path d="M250 110 Q258 98 264 90 Q268 86 264 80 Q258 76 255 82 Q252 90 250 100" />
  <path d="M250 110 Q245 104 240 98 Q237 94 240 90 Q244 88 245 93 Q248 98 250 105" />
  <path d="M250 110 Q255 104 260 98 Q263 94 260 90 Q256 88 255 93 Q252 98 250 105" />
  <path d="M250 110 L250 118" />
  <!-- Butterfly 3 wing detail -->
  <circle cx="240" cy="88" r="2" />
  <circle cx="260" cy="88" r="2" />
  <!-- Butterfly 4 - smaller, higher -->
  <path d="M200 70 Q194 60 190 54 Q187 50 190 46 Q194 44 196 48 Q198 54 200 62 L200 70" />
  <path d="M200 70 Q206 60 210 54 Q213 50 210 46 Q206 44 204 48 Q202 54 200 62" />
  <path d="M200 70 L200 76" />
  <circle cx="192" cy="52" r="2" />
  <circle cx="208" cy="52" r="2" />
  <!-- Butterfly 5 - small, distant -->
  <path d="M300 65 Q295 57 292 52 Q290 48 292 45 Q296 44 297 47 Q299 52 300 58 L300 65" />
  <path d="M300 65 Q305 57 308 52 Q310 48 308 45 Q304 44 303 47 Q301 52 300 58" />
  <path d="M300 65 L300 70" />
  <!-- Butterfly 6 - tiny, far -->
  <path d="M100 50 Q96 44 94 40 Q93 38 95 36 Q97 36 98 38 Q99 42 100 46" />
  <path d="M100 50 Q104 44 106 40 Q107 38 105 36 Q103 36 102 38 Q101 42 100 46" />
  <!-- Butterfly 7 -->
  <path d="M330 40 Q327 34 325 30 Q324 28 326 26 Q328 26 329 28 Q330 32 330 36" />
  <path d="M330 40 Q333 34 335 30 Q336 28 334 26 Q332 26 331 28 Q330 32 330 36" />
  <!-- Wind swirls carrying butterflies upward -->
  <path d="M160 180 Q145 170 135 162 Q128 158 130 150 Q135 145 142 148 Q148 155 155 165" />
  <path d="M240 170 Q255 160 265 152 Q272 148 270 140 Q265 135 258 138 Q252 145 245 155" />
  <path d="M120 110 Q105 100 95 90 Q88 84 92 78 Q98 75 105 80" />
  <path d="M280 100 Q295 88 305 78 Q312 72 308 65 Q302 62 295 68" />
  <!-- Flower petals floating -->
  <path d="M80 150 Q85 145 88 150 Q85 155 80 152" />
  <path d="M310 140 Q315 135 318 140 Q315 145 310 142" />
  <path d="M60 100 Q65 95 68 100 Q65 105 60 102" />
  <path d="M340 95 Q345 90 348 95 Q345 100 340 97" />
  <path d="M120 170 Q125 165 128 170 Q125 175 120 172" />
  <path d="M270 165 Q275 160 278 165 Q275 170 270 167" />
  <path d="M150 200 Q155 195 158 200 Q155 205 150 202" />
  <path d="M230 195 Q235 190 238 195 Q235 200 230 197" />
  <!-- Atmospheric dots -->
  <circle cx="90" cy="70" r="1" />
  <circle cx="350" cy="55" r="1" />
  <circle cx="70" cy="130" r="1.5" />
  <circle cx="330" cy="120" r="1.5" />
  <circle cx="50" cy="180" r="1" />
  <circle cx="360" cy="170" r="1" />
  <circle cx="110" cy="200" r="1" />
  <circle cx="290" cy="190" r="1" />
  <!-- Wind lines -->
  <path d="M30 80 Q55 75 80 80" />
  <path d="M310 70 Q335 65 360 70" />
  <path d="M40 130 Q65 125 90 130" />
  <path d="M320 125 Q345 120 370 125" />
  <path d="M20 210 Q50 205 80 210" />
  <path d="M310 200 Q340 195 370 200" />
</svg>
