<svg xmlns="http://www.w3.org/2000/svg" viewBox="0 0 400 400" fill="none" stroke="currentColor" stroke-width="2" stroke-linecap="round" stroke-linejoin="round">
  <!-- Eagle body -->
  <path d="M200 165 Q195 170 190 175 Q185 180 182 188 Q180 195 182 200 Q185 208 192 212 Q200 215 208 212 Q215 208 218 200 Q220 195 218 188 Q215 180 210 175 Q205 170 200 165" />
  <!-- Eagle head -->
  <path d="M200 165 Q198 158 195 152 Q192 148 190 145 Q188 142 188 138 Q190 134 194 133 Q198 132 200 135 Q202 132 206 133 Q210 134 212 138 Q212 142 210 145 Q208 148 205 152 Q202 158 200 165" />
  <!-- Beak -->
  <path d="M200 135 Q202 130 205 128 Q208 127 210 130 Q208 133 205 134" />
  <path d="M200 135 Q198 131 200 128" />
  <!-- Eye -->
  <circle cx="196" cy="140" r="2" />
  <!-- Left wing - upper -->
  <path d="M182 188 Q165 175 145 165 Q120 155 90 148 Q65 142 35 140" />
  <!-- Left wing - lower contour -->
  <path d="M182 200 Q160 195 140 192 Q115 188 85 185 Q60 183 30 182" />
  <!-- Left wing feather details -->
  <path d="M35 140 Q38 150 42 158 Q45 162 35 165" />
  <path d="M55 143 Q58 152 60 160 Q62 165 52 168" />
  <path d="M75 147 Q78 155 80 163 Q82 168 72 170" />
  <path d="M95 150 Q97 158 98 165 Q99 170 90 172" />
  <path d="M115 157 Q116 164 116 170 Q116 175 108 176" />
  <path d="M135 165 Q135 172 134 178 Q133 182 126 182" />
  <path d="M155 173 Q154 179 152 184 Q151 187 145 187" />
  <!-- Left wing - secondary feather layer -->
  <path d="M30 182 Q35 175 40 170" />
  <path d="M50 183 Q54 177 58 172" />
  <path d="M70 185 Q73 179 75 174" />
  <path d="M90 187 Q92 181 93 176" />
  <path d="M110 189 Q111 183 112 179" />
  <path d="M130 191 Q130 186 130 182" />
  <!-- Right wing - upper -->
  <path d="M218 188 Q235 175 255 165 Q280 155 310 148 Q335 142 365 140" />
  <!-- Right wing - lower contour -->
  <path d="M218 200 Q240 195 260 192 Q285 188 315 185 Q340 183 370 182" />
  <!-- Right wing feather details -->
  <path d="M365 140 Q362 150 358 158 Q355 162 365 165" />
  <path d="M345 143 Q342 152 340 160 Q338 165 348 168" />
  <path d="M325 147 Q322 155 320 163 Q318 168 328 170" />
  <path d="M305 150 Q303 158 302 165 Q301 170 310 172" />
  <path d="M285 157 Q284 164 284 170 Q284 175 292 176" />
  <path d="M265 165 Q265 172 266 178 Q267 182 274 182" />
  <path d="M245 173 Q246 179 248 184 Q249 187 255 187" />
  <!-- Right wing - secondary feather layer -->
  <path d="M370 182 Q365 175 360 170" />
  <path d="M350 183 Q346 177 342 172" />
  <path d="M330 185 Q327 179 325 174" />
  <path d="M310 187 Q308 181 307 176" />
  <path d="M290 189 Q289 183 288 179" />
  <path d="M270 191 Q270 186 270 182" />
  <!-- Tail feathers -->
  <path d="M192 212 Q188 225 185 240 Q182 255 180 265" />
  <path d="M200 215 Q200 230 200 245 Q200 258 200 268" />
  <path d="M208 212 Q212 225 215 240 Q218 255 220 265" />
  <path d="M185 240 Q192 242 200 243 Q208 242 215 240" />
  <path d="M182 255 Q190 258 200 258 Q210 258 218 255" />
  <!-- Mountains below -->
  <path d="M0 350 Q25 340 50 320 Q70 305 90 290 Q110 310 130 320 Q145 328 160 315 Q175 300 190 285 Q200 278 210 285 Q225 300 240 315 Q255 328 270 320 Q290 310 310 290 Q330 305 350 320 Q370 335 390 345 L400 350" />
  <!-- Mountain detail lines -->
  <path d="M90 290 Q95 295 100 300 Q105 305 110 310" />
  <path d="M190 285 Q195 288 200 290 Q205 288 210 285" />
  <path d="M310 290 Q315 295 320 300 Q325 305 330 310" />
  <!-- Snow caps on mountains -->
  <path d="M80 298 Q90 290 100 298" />
  <path d="M185 290 Q195 282 205 290" />
  <path d="M305 298 Q315 290 325 298" />
  <!-- Clouds below eagle -->
  <path d="M20 240 Q35 232 50 235 Q60 228 75 232 Q88 226 100 232 Q92 240 78 238 Q65 242 50 240 Q38 244 20 240" />
  <path d="M280 250 Q295 242 310 245 Q320 238 335 242 Q348 236 360 242 Q352 250 338 248 Q325 252 310 250 Q298 254 280 250" />
  <path d="M130 260 Q150 252 170 255 Q185 248 200 252 Q190 260 175 258 Q160 262 145 260 Q138 264 130 260" />
  <!-- Wind currents flowing around eagle -->
  <path d="M20 120 Q60 115 100 118 Q130 120 150 115" />
  <path d="M250 115 Q280 118 310 115 Q340 112 380 118" />
  <path d="M15 160 Q50 155 80 158 Q100 160 120 155" />
  <path d="M280 155 Q310 158 340 155 Q360 152 390 158" />
  <!-- Small distant birds -->
  <path d="M50 100 Q58 93 66 100" />
  <path d="M70 95 Q78 88 86 95" />
  <path d="M320 90 Q328 83 336 90" />
  <path d="M340 95 Q348 88 356 95" />
  <path d="M140 110 Q147 104 154 110" />
  <path d="M260 105 Q267 99 274 105" />
  <!-- Wind detail dots -->
  <circle cx="30" cy="130" r="1.5" />
  <circle cx="370" cy="125" r="1.5" />
  <circle cx="100" cy="100" r="1" />
  <circle cx="300" cy="95" r="1" />
  <circle cx="180" cy="115" r="1" />
  <circle cx="220" cy="112" r="1" />
</svg>
