<svg xmlns="http://www.w3.org/2000/svg" viewBox="0 0 400 400" fill="none" stroke="currentColor" stroke-width="2" stroke-linecap="round" stroke-linejoin="round">
  <!-- Main feather - central shaft/rachis -->
  <path d="M120 60 Q150 100 175 150 Q200 200 220 260 Q235 310 245 360" />
  <!-- Left barbs - detailed, layered -->
  <path d="M120 60 Q110 70 105 78 Q112 75 120 68" />
  <path d="M125 75 Q112 88 105 98 Q115 92 125 84" />
  <path d="M132 92 Q118 105 110 115 Q120 110 132 100" />
  <path d="M140 112 Q125 125 115 135 Q128 128 140 118" />
  <path d="M148 132 Q132 148 122 158 Q135 150 148 138" />
  <path d="M155 152 Q138 168 128 180 Q142 172 156 158" />
  <path d="M163 175 Q145 192 135 205 Q150 196 164 180" />
  <path d="M170 198 Q152 215 142 228 Q158 218 172 202" />
  <path d="M178 222 Q160 240 150 252 Q165 242 180 225" />
  <path d="M186 248 Q168 265 158 278 Q174 268 188 250" />
  <path d="M195 275 Q178 292 168 305 Q184 294 197 278" />
  <path d="M205 302 Q188 318 180 328 Q195 318 207 305" />
  <path d="M215 328 Q200 342 192 352 Q206 342 218 330" />
  <path d="M225 348 Q212 360 205 368 Q216 360 228 350" />
  <!-- Right barbs - detailed, layered -->
  <path d="M125 68 Q135 62 142 58 Q135 68 128 74" />
  <path d="M132 86 Q145 78 155 72 Q146 84 135 92" />
  <path d="M140 105 Q155 96 165 88 Q155 100 142 110" />
  <path d="M148 125 Q164 115 175 106 Q164 118 150 130" />
  <path d="M156 148 Q173 136 185 126 Q173 140 158 152" />
  <path d="M164 170 Q182 158 195 148 Q182 162 166 175" />
  <path d="M172 195 Q190 182 205 170 Q192 185 175 198" />
  <path d="M180 218 Q200 205 215 192 Q200 208 183 222" />
  <path d="M190 245 Q208 230 225 218 Q210 232 192 248" />
  <path d="M198 268 Q218 255 235 242 Q218 258 200 272" />
  <path d="M208 295 Q228 280 242 268 Q228 282 210 298" />
  <path d="M218 320 Q235 305 248 295 Q236 308 220 322" />
  <path d="M228 342 Q242 330 252 320 Q244 332 230 345" />
  <!-- Secondary barb texture (fine lines between main barbs) -->
  <path d="M128 80 Q120 85 115 90" />
  <path d="M138 100 Q128 108 122 115" />
  <path d="M148 140 Q138 148 130 155" />
  <path d="M160 165 Q148 175 140 182" />
  <path d="M172 205 Q162 212 155 220" />
  <path d="M185 240 Q175 248 168 255" />
  <path d="M198 280 Q188 288 182 295" />
  <path d="M210 315 Q200 322 195 328" />
  <!-- Right side secondary texture -->
  <path d="M136 80 Q145 75 152 70" />
  <path d="M146 112 Q155 105 162 98" />
  <path d="M158 145 Q168 136 175 128" />
  <path d="M168 178 Q180 168 188 158" />
  <path d="M182 215 Q192 205 200 195" />
  <path d="M195 252 Q205 242 212 232" />
  <path d="M208 290 Q218 280 225 270" />
  <path d="M220 325 Q230 315 236 305" />
  <!-- Floating seeds around the feather -->
  <path d="M60 130 L58 122 M60 130 L62 122 M60 130 L60 121" />
  <circle cx="60" cy="132" r="1.5" />
  <path d="M300 180 L298 172 M300 180 L302 172 M300 180 L300 171" />
  <circle cx="300" cy="182" r="1.5" />
  <path d="M45 250 L43 242 M45 250 L47 242 M45 250 L45 241" />
  <circle cx="45" cy="252" r="1.5" />
  <path d="M330 290 L328 282 M330 290 L332 282 M330 290 L330 281" />
  <circle cx="330" cy="292" r="1.5" />
  <path d="M80 320 L78 312 M80 320 L82 312 M80 320 L80 311" />
  <circle cx="80" cy="322" r="1.5" />
  <!-- Sparkle/star elements -->
  <path d="M310 100 L310 90 M305 95 L315 95" />
  <path d="M55 180 L55 170 M50 175 L60 175" />
  <path d="M340 220 L340 210 M335 215 L345 215" />
  <path d="M70 60 L70 50 M65 55 L75 55" />
  <path d="M350 340 L350 330 M345 335 L355 335" />
  <path d="M40 360 L40 350 M35 355 L45 355" />
  <!-- Larger sparkle -->
  <path d="M320 140 L320 126 M313 133 L327 133" />
  <path d="M315 128 L325 138 M325 128 L315 138" />
  <!-- Gentle wind currents -->
  <path d="M30 100 Q50 95 70 100 Q85 103 100 98" />
  <path d="M280 150 Q300 145 320 150 Q335 153 350 148" />
  <path d="M20 200 Q40 195 60 200 Q75 203 90 198" />
  <path d="M290 240 Q310 235 330 240 Q345 243 360 238" />
  <path d="M35 290 Q55 285 75 290 Q90 293 105 288" />
  <path d="M300 320 Q320 315 340 320 Q355 323 370 318" />
  <!-- Tiny floating dots -->
  <circle cx="40" cy="140" r="1" />
  <circle cx="320" cy="120" r="1" />
  <circle cx="50" cy="220" r="1" />
  <circle cx="340" cy="260" r="1" />
  <circle cx="30" cy="310" r="1" />
  <circle cx="360" cy="300" r="1" />
  <circle cx="90" cy="80" r="1" />
  <circle cx="280" cy="120" r="1" />
  <circle cx="60" cy="280" r="1" />
  <circle cx="350" cy="350" r="1" />
</svg>
