<svg xmlns="http://www.w3.org/2000/svg" viewBox="0 0 400 400" fill="none" stroke="currentColor" stroke-width="2" stroke-linecap="round" stroke-linejoin="round">
  <!-- Mountain peak - main mountain -->
  <path d="M0 380 Q30 375 60 360 Q90 340 120 310 Q150 280 170 250 Q185 228 195 210 Q200 200 205 210 Q215 228 230 250 Q250 280 280 310 Q310 340 340 360 Q370 375 400 380" />
  <!-- Mountain texture lines left -->
  <path d="M80 348 Q100 335 120 318 Q135 305 148 288" />
  <path d="M110 340 Q125 328 138 312 Q148 300 155 285" />
  <path d="M50 365 Q70 355 88 340 Q100 330 110 315" />
  <!-- Mountain texture lines right -->
  <path d="M320 348 Q300 335 280 318 Q265 305 252 288" />
  <path d="M290 340 Q275 328 262 312 Q252 300 245 285" />
  <path d="M350 365 Q330 355 312 340 Q300 330 290 315" />
  <!-- Rocky detail at peak -->
  <path d="M185 220 Q190 215 195 218" />
  <path d="M205 218 Q210 215 215 220" />
  <path d="M178 235 Q182 230 186 234" />
  <path d="M214 234 Q218 230 222 235" />
  <!-- Secondary mountains behind -->
  <path d="M0 370 Q40 355 80 330 Q100 315 115 298 Q120 290 125 298 Q140 318 165 340 Q180 352 195 358" />
  <path d="M205 358 Q220 352 235 340 Q260 318 275 298 Q280 290 285 298 Q300 315 320 330 Q360 355 400 370" />
  <!-- Meditating figure on peak -->
  <!-- Head -->
  <circle cx="200" cy="168" r="12" />
  <!-- Neck -->
  <path d="M195 180 Q195 185 193 188" />
  <path d="M205 180 Q205 185 207 188" />
  <!-- Shoulders and body -->
  <path d="M193 188 Q180 192 170 198 Q165 202 168 208 Q172 215 180 218 Q190 220 200 218" />
  <path d="M207 188 Q220 192 230 198 Q235 202 232 208 Q228 215 220 218 Q210 220 200 218" />
  <!-- Crossed legs -->
  <path d="M170 198 Q165 205 168 210 Q172 215 178 212 Q185 208 190 205 Q195 202 200 202" />
  <path d="M230 198 Q235 205 232 210 Q228 215 222 212 Q215 208 210 205 Q205 202 200 202" />
  <!-- Hands on knees -->
  <path d="M172 210 Q170 208 168 212 Q167 216 170 216 Q173 215 172 212" />
  <path d="M228 210 Q230 208 232 212 Q233 216 230 216 Q227 215 228 212" />
  <!-- Face details -->
  <path d="M194 165 Q196 163 198 165" />
  <path d="M202 165 Q204 163 206 165" />
  <path d="M197 172 Q200 174 203 172" />
  <!-- Clouds flowing around the figure -->
  <path d="M20 180 Q38 170 58 174 Q72 166 90 172 Q82 182 68 178 Q52 184 38 180 Q28 184 20 180" />
  <path d="M30 200 Q48 190 68 194 Q82 186 100 192 Q92 202 78 198 Q62 204 48 200 Q38 204 30 200" />
  <path d="M25 220 Q42 210 60 214 Q72 208 88 212 Q80 222 68 218 Q52 224 40 220 Q32 224 25 220" />
  <path d="M300 175 Q318 165 338 169 Q352 161 370 167 Q362 177 348 173 Q332 179 318 175 Q308 179 300 175" />
  <path d="M310 198 Q328 188 348 192 Q360 184 375 190 Q368 200 356 196 Q342 202 328 198 Q318 202 310 198" />
  <path d="M305 218 Q322 208 340 212 Q352 206 368 210 Q360 220 348 216 Q332 222 320 218 Q312 222 305 218" />
  <!-- Cloud wisps -->
  <path d="M100 185 Q115 182 130 186" />
  <path d="M270 182 Q285 179 300 183" />
  <path d="M110 210 Q125 207 140 210" />
  <path d="M260 208 Q275 205 290 208" />
  <!-- Birds circling above -->
  <path d="M140 100 Q148 92 156 100" />
  <path d="M148 96 Q156 88 164 96" />
  <path d="M240 95 Q248 87 256 95" />
  <path d="M248 90 Q256 82 264 90" />
  <path d="M185 80 Q192 73 199 80" />
  <path d="M201 75 Q208 68 215 75" />
  <path d="M120 120 Q127 114 134 120" />
  <path d="M266 115 Q273 109 280 115" />
  <!-- Distant birds -->
  <path d="M60 60 Q66 55 72 60" />
  <path d="M330 55 Q336 50 342 55" />
  <path d="M170 45 Q176 40 182 45" />
  <path d="M218 40 Q224 35 230 40" />
  <!-- Wind patterns flowing -->
  <path d="M10 130 Q40 125 70 130 Q95 133 120 128" />
  <path d="M280 125 Q310 120 340 125 Q365 128 390 123" />
  <path d="M5 150 Q35 145 65 150 Q85 153 105 148" />
  <path d="M295 145 Q325 140 355 145 Q375 148 395 143" />
  <!-- Energy/aura lines around figure -->
  <path d="M175 155 Q170 148 168 140 Q167 132 172 125" />
  <path d="M225 155 Q230 148 232 140 Q233 132 228 125" />
  <path d="M165 170 Q158 165 152 160 Q148 155 150 148" />
  <path d="M235 170 Q242 165 248 160 Q252 155 250 148" />
  <path d="M200 155 Q200 148 200 140 Q200 132 200 125" />
  <!-- Mountain range in far background -->
  <path d="M0 350 Q20 342 40 335 Q55 330 65 325 Q70 322 75 325 Q85 332 100 340 Q120 350 140 355" />
  <path d="M260 355 Q280 350 300 340 Q315 332 325 325 Q330 322 335 325 Q345 330 360 335 Q380 342 400 350" />
  <!-- Tiny detail dots -->
  <circle cx="100" cy="50" r="1" />
  <circle cx="300" cy="45" r="1" />
  <circle cx="200" cy="30" r="1.5" />
  <circle cx="150" cy="65" r="1" />
  <circle cx="250" cy="60" r="1" />
  <circle cx="50" cy="90" r="1" />
  <circle cx="350" cy="85" r="1" />
  <circle cx="200" cy="110" r="1" />
</svg>
