<svg xmlns="http://www.w3.org/2000/svg" viewBox="0 0 400 400" fill="none" stroke="currentColor" stroke-width="2" stroke-linecap="round" stroke-linejoin="round">
  <!-- Hot air balloon envelope -->
  <path d="M200 40 Q140 50 115 90 Q95 125 95 165 Q95 200 115 225 Q135 248 165 258 L170 265" />
  <path d="M200 40 Q260 50 285 90 Q305 125 305 165 Q305 200 285 225 Q265 248 235 258 L230 265" />
  <!-- Balloon panel lines -->
  <path d="M200 40 Q198 80 195 120 Q192 160 190 200 Q188 230 185 258" />
  <path d="M200 40 Q202 80 205 120 Q208 160 210 200 Q212 230 215 258" />
  <path d="M200 40 Q180 55 160 85 Q145 115 140 155 Q138 190 145 220 Q150 240 162 255" />
  <path d="M200 40 Q220 55 240 85 Q255 115 260 155 Q262 190 255 220 Q250 240 238 255" />
  <!-- Balloon decorative bands -->
  <path d="M130 110 Q165 105 200 103 Q235 105 270 110" />
  <path d="M115 150 Q155 145 200 143 Q245 145 285 150" />
  <path d="M120 190 Q160 185 200 183 Q240 185 280 190" />
  <!-- Basket ropes -->
  <path d="M170 265 Q172 275 175 285 Q178 295 180 300" />
  <path d="M230 265 Q228 275 225 285 Q222 295 220 300" />
  <path d="M185 258 Q190 275 192 290 Q193 295 195 300" />
  <path d="M215 258 Q210 275 208 290 Q207 295 205 300" />
  <!-- Basket -->
  <path d="M175 300 L225 300 L228 320 L172 320 Z" />
  <path d="M175 305 L225 305" />
  <path d="M174 310 L226 310" />
  <path d="M173 315 L227 315" />
  <!-- Basket weave pattern -->
  <path d="M185 300 L183 320" />
  <path d="M195 300 L193 320" />
  <path d="M205 300 L207 320" />
  <path d="M215 300 L217 320" />
  <!-- Clouds at eye level -->
  <path d="M20 150 Q35 140 55 143 Q68 135 85 140 Q78 150 65 148 Q50 153 35 150 Q28 154 20 150" />
  <path d="M310 160 Q328 150 348 153 Q362 145 380 150 Q372 160 358 158 Q342 163 328 160 Q318 164 310 160" />
  <path d="M30 200 Q48 190 68 193 Q80 186 95 190 Q88 200 75 198 Q60 203 48 200 Q38 204 30 200" />
  <path d="M320 210 Q338 200 355 203 Q365 196 378 200 Q372 210 360 208 Q348 213 338 210 Q328 214 320 210" />
  <!-- Cloud wisps -->
  <path d="M5 170 Q15 165 28 168" />
  <path d="M375 175 Q385 170 395 173" />
  <!-- Landscape below - tiny houses -->
  <path d="M150 365 L155 355 L160 365 L150 365" />
  <path d="M153 365 L153 370 L157 370 L157 365" />
  <path d="M175 370 L180 360 L185 370 L175 370" />
  <path d="M178 370 L178 374 L182 374 L182 370" />
  <path d="M220 368 L225 358 L230 368 L220 368" />
  <path d="M223 368 L223 372 L227 372 L227 368" />
  <path d="M250 372 L255 362 L260 372 L250 372" />
  <path d="M253 372 L253 376 L257 376 L257 372" />
  <!-- Tiny trees -->
  <path d="M140 370 L142 362 L144 370" />
  <line x1="142" y1="370" x2="142" y2="375" />
  <path d="M200 368 L202 360 L204 368" />
  <line x1="202" y1="368" x2="202" y2="373" />
  <path d="M270 370 L272 362 L274 370" />
  <line x1="272" y1="370" x2="272" y2="375" />
  <!-- Fields/patches -->
  <path d="M100 375 Q130 370 160 375" />
  <path d="M110 380 Q140 376 170 380" />
  <path d="M190 378 Q220 374 250 378" />
  <path d="M195 383 Q225 380 255 383" />
  <!-- Winding road -->
  <path d="M200 340 Q195 350 192 360 Q190 370 188 380 Q186 390 185 400" />
  <path d="M206 340 Q201 350 198 360 Q196 370 194 380 Q192 390 191 400" />
  <!-- River -->
  <path d="M100 360 Q120 355 140 358 Q160 362 180 358 Q195 355 200 350" />
  <!-- Birds nearby -->
  <path d="M55 100 Q62 92 70 100" />
  <path d="M62 96 Q69 88 77 96" />
  <path d="M340 120 Q347 112 355 120" />
  <path d="M350 115 Q357 108 365 115" />
  <path d="M140 130 Q147 123 154 130" />
  <path d="M260 130 Q267 123 274 130" />
  <!-- Wind currents -->
  <path d="M20 100 Q50 95 80 100" />
  <path d="M320 90 Q350 85 380 90" />
  <path d="M10 230 Q40 225 70 230" />
  <path d="M340 240 Q360 235 380 240" />
  <path d="M40 260 Q65 255 90 260" />
  <path d="M310 270 Q335 265 360 270" />
  <!-- Tiny dots for atmosphere -->
  <circle cx="100" cy="340" r="1" />
  <circle cx="280" cy="345" r="1" />
  <circle cx="130" cy="350" r="1" />
  <circle cx="300" cy="355" r="1" />
  <circle cx="160" cy="380" r="1" />
  <circle cx="240" cy="385" r="1" />
  <!-- Sun rays hint upper right -->
  <path d="M370 40 L380 30" />
  <path d="M375 50 L390 45" />
  <path d="M365 35 L370 20" />
  <circle cx="380" cy="35" r="3" />
</svg>
