<svg xmlns="http://www.w3.org/2000/svg" viewBox="0 0 400 400" fill="none" stroke="currentColor" stroke-width="2" stroke-linecap="round" stroke-linejoin="round">
  <!-- Landscape/ground -->
  <path d="M0 340 Q40 335 80 338 Q120 342 160 336 Q200 332 240 336 Q280 340 320 335 Q360 330 400 334" />
  <path d="M0 355 Q50 350 100 353 Q150 356 200 350 Q250 345 300 352 Q350 358 400 352" />
  <!-- Small hills -->
  <path d="M0 340 Q20 330 40 328 Q60 326 80 330 Q95 334 100 338" />
  <path d="M300 335 Q320 325 340 322 Q360 320 380 325 Q395 330 400 334" />
  <!-- Trees on landscape -->
  <path d="M50 340 Q52 330 55 322 Q58 315 60 310 Q62 315 65 322 Q68 330 70 338" />
  <line x1="60" y1="340" x2="60" y2="310" />
  <path d="M340 335 Q342 325 345 318 Q348 312 350 308 Q352 312 355 318 Q358 325 360 333" />
  <line x1="350" y1="335" x2="350" y2="308" />
  <path d="M85 338 Q87 332 89 326 Q91 322 93 318 Q95 322 97 326 Q99 332 101 337" />
  <line x1="93" y1="338" x2="93" y2="318" />
  <!-- Grass tufts -->
  <path d="M120 340 Q122 334 125 330" />
  <path d="M128 340 Q126 334 123 330" />
  <path d="M250 338 Q252 332 255 328" />
  <path d="M258 338 Q256 332 253 328" />
  <path d="M180 337 Q182 332 184 328" />
  <path d="M188 337 Q186 332 184 328" />
  <!-- Child figure looking up -->
  <!-- Head tilted back -->
  <circle cx="200" cy="290" r="14" />
  <!-- Face looking up -->
  <path d="M195 286 Q196 284 198 286" />
  <path d="M202 286 Q204 284 206 286" />
  <path d="M198 292 Q200 294 202 292" />
  <!-- Hair -->
  <path d="M186 288 Q184 280 188 275 Q192 272 196 275 Q200 270 204 275 Q208 272 212 275 Q216 280 214 288" />
  <path d="M188 282 Q185 275 190 270" />
  <path d="M212 282 Q215 275 210 270" />
  <!-- Body -->
  <path d="M193 304 Q190 310 188 320 Q186 330 185 340" />
  <path d="M207 304 Q210 310 212 320 Q214 330 215 340" />
  <path d="M193 304 Q195 308 200 310 Q205 308 207 304" />
  <!-- Arms reaching slightly upward -->
  <path d="M193 310 Q185 305 178 298 Q172 292 168 288" />
  <path d="M207 310 Q215 305 222 298 Q228 292 232 288" />
  <!-- Hands -->
  <path d="M168 288 Q165 285 162 286 Q160 288 162 290 Q165 291 168 290" />
  <path d="M232 288 Q235 285 238 286 Q240 288 238 290 Q235 291 232 290" />
  <!-- Feet -->
  <path d="M185 340 Q182 342 180 340 Q178 338 180 336" />
  <path d="M215 340 Q218 342 220 340 Q222 338 220 336" />
  <!-- STARRY SKY -->
  <!-- Large detailed stars -->
  <path d="M80 50 L83 40 L86 50 L76 44 L90 44 Z" />
  <path d="M320 40 L323 30 L326 40 L316 34 L330 34 Z" />
  <path d="M200 30 L204 16 L208 30 L194 22 L212 22 Z" />
  <path d="M50 100 L53 90 L56 100 L46 94 L60 94 Z" />
  <path d="M350 95 L353 85 L356 95 L346 89 L360 89 Z" />
  <path d="M150 70 L153 60 L156 70 L146 64 L160 64 Z" />
  <path d="M260 60 L263 50 L266 60 L256 54 L270 54 Z" />
  <!-- Medium stars -->
  <path d="M110 120 L112 112 L114 120 L106 116 L118 116 Z" />
  <path d="M290 130 L292 122 L294 130 L286 126 L298 126 Z" />
  <path d="M40 160 L42 152 L44 160 L36 156 L48 156 Z" />
  <path d="M360 155 L362 147 L364 155 L356 151 L368 151 Z" />
  <path d="M180 110 L182 103 L184 110 L176 106 L188 106 Z" />
  <path d="M230 100 L232 93 L234 100 L226 96 L238 96 Z" />
  <!-- Constellations - connected by lines -->
  <!-- Constellation 1 - like a bird -->
  <circle cx="80" cy="50" r="2.5" />
  <circle cx="110" cy="40" r="2" />
  <circle cx="130" cy="55" r="2" />
  <circle cx="150" cy="45" r="2" />
  <circle cx="140" cy="70" r="2" />
  <line x1="80" y1="50" x2="110" y2="40" />
  <line x1="110" y1="40" x2="130" y2="55" />
  <line x1="130" y1="55" x2="150" y2="45" />
  <line x1="130" y1="55" x2="140" y2="70" />
  <!-- Constellation 2 -->
  <circle cx="270" cy="55" r="2" />
  <circle cx="290" cy="42" r="2" />
  <circle cx="310" cy="50" r="2" />
  <circle cx="330" cy="38" r="2.5" />
  <circle cx="320" cy="65" r="2" />
  <line x1="270" y1="55" x2="290" y2="42" />
  <line x1="290" y1="42" x2="310" y2="50" />
  <line x1="310" y1="50" x2="330" y2="38" />
  <line x1="310" y1="50" x2="320" y2="65" />
  <!-- Constellation 3 - small triangle -->
  <circle cx="200" cy="25" r="2" />
  <circle cx="185" cy="45" r="1.5" />
  <circle cx="215" cy="45" r="1.5" />
  <line x1="200" y1="25" x2="185" y2="45" />
  <line x1="200" y1="25" x2="215" y2="45" />
  <line x1="185" y1="45" x2="215" y2="45" />
  <!-- Shooting stars -->
  <path d="M60 80 Q80 75 100 72 Q115 70 130 72" />
  <path d="M55 80 L50 78 M55 80 L52 84 M55 80 L53 76" />
  <path d="M300 100 Q320 92 340 88 Q355 85 370 88" />
  <path d="M295 100 L290 98 M295 100 L292 104 M295 100 L293 96" />
  <!-- Third shooting star -->
  <path d="M180 130 Q200 125 220 122 Q235 120 250 122" />
  <path d="M175 130 L170 128 M175 130 L172 134" />
  <!-- Aurora-like wind patterns across the sky -->
  <path d="M20 180 Q60 170 100 175 Q140 180 180 172 Q220 165 260 170 Q300 178 340 172 Q360 168 380 172" />
  <path d="M10 195 Q50 185 90 190 Q130 195 170 188 Q210 182 250 186 Q290 192 330 186 Q360 182 390 186" />
  <path d="M20 210 Q55 202 90 205 Q125 210 160 204 Q195 198 230 202 Q265 208 300 204 Q340 198 380 202" />
  <!-- Shorter aurora wisps -->
  <path d="M30 225 Q60 218 90 222 Q115 226 140 220" />
  <path d="M260 218 Q290 212 320 216 Q345 220 370 214" />
  <!-- Small twinkling dots scattered across sky -->
  <circle cx="30" cy="30" r="1" />
  <circle cx="370" cy="25" r="1" />
  <circle cx="160" cy="90" r="1" />
  <circle cx="240" cy="85" r="1" />
  <circle cx="70" cy="140" r="1" />
  <circle cx="340" cy="135" r="1" />
  <circle cx="120" cy="160" r="1" />
  <circle cx="280" cy="155" r="1" />
  <circle cx="200" cy="145" r="1" />
  <circle cx="95" cy="185" r="1" />
  <circle cx="305" cy="180" r="1" />
  <circle cx="175" cy="200" r="1" />
  <circle cx="230" cy="195" r="1" />
  <circle cx="400" cy="45" r="1" />
  <circle cx="0" cy="55" r="1" />
  <!-- Extra sparkle crosses -->
  <path d="M130 140 L130 134 M127 137 L133 137" />
  <path d="M270 140 L270 134 M267 137 L273 137" />
  <path d="M200 80 L200 74 M197 77 L203 77" />
  <path d="M60 120 L60 114 M57 117 L63 117" />
  <path d="M340 115 L340 109 M337 112 L343 112" />
</svg>
