<svg xmlns="http://www.w3.org/2000/svg" viewBox="0 0 400 400" fill="none" stroke="currentColor" stroke-width="2" stroke-linecap="round" stroke-linejoin="round">
<!-- Lion face composed of flowing flame mane -->
<!-- Outer mane - left side (flowing flame shapes) -->
<path d="M200 45 Q175 50 155 65 Q135 82 122 105 Q110 130 108 158" />
<path d="M200 40 Q168 48 145 68 Q125 90 115 118 Q105 148 105 175" />
<path d="M108 158 Q100 140 92 155 Q82 172 78 195 Q76 218 82 240" />
<path d="M105 175 Q95 160 85 175 Q75 195 72 218 Q70 242 78 262" />
<path d="M82 240 Q75 258 78 278 Q82 298 95 315 Q110 330 128 340" />
<path d="M78 262 Q72 282 76 302 Q82 320 98 335 Q115 348 135 354" />
<path d="M128 340 Q148 350 170 355 Q188 358 200 358" />
<path d="M135 354 Q155 362 178 365 Q192 366 200 365" />
<!-- Outer mane - right side (flowing flame shapes) -->
<path d="M200 45 Q225 50 245 65 Q265 82 278 105 Q290 130 292 158" />
<path d="M200 40 Q232 48 255 68 Q275 90 285 118 Q295 148 295 175" />
<path d="M292 158 Q300 140 308 155 Q318 172 322 195 Q324 218 318 240" />
<path d="M295 175 Q305 160 315 175 Q325 195 328 218 Q330 242 322 262" />
<path d="M318 240 Q325 258 322 278 Q318 298 305 315 Q290 330 272 340" />
<path d="M322 262 Q328 282 324 302 Q318 320 302 335 Q285 348 265 354" />
<path d="M272 340 Q252 350 230 355 Q212 358 200 358" />
<path d="M265 354 Q245 362 222 365 Q208 366 200 365" />
<!-- Inner mane flames - left -->
<path d="M155 65 Q142 58 135 70 Q128 85 125 102" />
<path d="M122 105 Q112 95 108 108 Q102 125 100 145" />
<path d="M92 155 Q86 145 80 155 Q75 170 74 188" />
<path d="M85 195 Q78 210 80 228 Q83 245 90 258" />
<!-- Inner mane flames - right -->
<path d="M245 65 Q258 58 265 70 Q272 85 275 102" />
<path d="M278 105 Q288 95 292 108 Q298 125 300 145" />
<path d="M308 155 Q314 145 320 155 Q325 170 326 188" />
<path d="M315 195 Q322 210 320 228 Q317 245 310 258" />
<!-- Face outline -->
<path d="M145 140 Q140 170 142 200 Q145 230 155 255 Q168 278 185 292 Q195 300 200 302" />
<path d="M255 140 Q260 170 258 200 Q255 230 245 255 Q232 278 215 292 Q205 300 200 302" />
<!-- Forehead -->
<path d="M145 140 Q155 125 170 118 Q185 112 200 110 Q215 112 230 118 Q245 125 255 140" />
<!-- Eyes - left -->
<path d="M155 175 Q160 165 172 162 Q185 160 192 168 Q196 175 192 182 Q185 188 172 188 Q160 186 155 175" />
<circle cx="175" cy="174" r="5" />
<circle cx="177" cy="173" r="2" />
<!-- Eyes - right -->
<path d="M245 175 Q240 165 228 162 Q215 160 208 168 Q204 175 208 182 Q215 188 228 188 Q240 186 245 175" />
<circle cx="225" cy="174" r="5" />
<circle cx="223" cy="173" r="2" />
<!-- Brow ridge -->
<path d="M150 162 Q165 152 180 150 Q192 149 200 150" />
<path d="M250 162 Q235 152 220 150 Q208 149 200 150" />
<!-- Nose -->
<path d="M192 210 Q188 218 185 225 Q183 232 188 238 Q195 242 200 242 Q205 242 212 238 Q217 232 215 225 Q212 218 208 210" />
<path d="M192 210 Q196 205 200 203 Q204 205 208 210" />
<!-- Nose bridge -->
<path d="M196 195 Q198 200 200 203" />
<path d="M204 195 Q202 200 200 203" />
<!-- Mouth -->
<path d="M182 258 Q188 262 195 265 Q200 267 205 265 Q212 262 218 258" />
<path d="M200 242 L200 258" />
<path d="M200 258 Q195 262 190 260" />
<path d="M200 258 Q205 262 210 260" />
<!-- Chin -->
<path d="M185 270 Q190 280 200 285 Q210 280 215 270" />
<!-- Whiskers - left -->
<path d="M182 248 Q165 245 145 240 Q125 236 108 234" />
<path d="M180 255 Q162 255 140 255 Q120 256 100 258" />
<path d="M178 262 Q160 268 140 275 Q122 282 108 290" />
<!-- Whisker dots - left -->
<circle cx="182" cy="245" r="1.5" />
<circle cx="180" cy="250" r="1.5" />
<circle cx="179" cy="255" r="1.5" />
<circle cx="178" cy="260" r="1.5" />
<!-- Whiskers - right -->
<path d="M218 248 Q235 245 255 240 Q275 236 292 234" />
<path d="M220 255 Q238 255 260 255 Q280 256 300 258" />
<path d="M222 262 Q240 268 260 275 Q278 282 292 290" />
<!-- Whisker dots - right -->
<circle cx="218" cy="245" r="1.5" />
<circle cx="220" cy="250" r="1.5" />
<circle cx="221" cy="255" r="1.5" />
<circle cx="222" cy="260" r="1.5" />
<!-- Ear tufts - left -->
<path d="M138 115 Q130 98 128 80 Q127 65 135 55 Q142 48 150 55 Q155 65 152 80 Q148 95 145 108" />
<path d="M135 110 Q128 95 126 78 Q125 62 132 52" />
<!-- Ear tufts - right -->
<path d="M262 115 Q270 98 272 80 Q273 65 265 55 Q258 48 250 55 Q245 65 248 80 Q252 95 255 108" />
<path d="M265 110 Q272 95 274 78 Q275 62 268 52" />
<!-- Sparks emanating outward -->
<circle cx="65" cy="190" r="2.5" />
<circle cx="335" cy="185" r="2.5" />
<circle cx="70" cy="260" r="2" />
<circle cx="330" cy="255" r="2" />
<circle cx="120" cy="50" r="2" />
<circle cx="280" cy="48" r="2" />
<circle cx="95" cy="310" r="2" />
<circle cx="305" cy="308" r="2" />
<circle cx="60" cy="225" r="1.5" />
<circle cx="340" cy="220" r="1.5" />
<circle cx="155" cy="38" r="1.5" />
<circle cx="245" cy="36" r="1.5" />
<!-- Small flame wisps at mane tips -->
<path d="M75 200 Q70 192 72 185 Q75 178 72 170" />
<path d="M325 195 Q330 187 328 180 Q325 173 328 165" />
<path d="M200 35 Q198 28 200 22 Q202 15 200 8" />
<path d="M130 48 Q125 40 128 32" />
<path d="M270 46 Q275 38 272 30" />
</svg>