<svg xmlns="http://www.w3.org/2000/svg" viewBox="0 0 400 400" fill="none" stroke="currentColor" stroke-width="2" stroke-linecap="round" stroke-linejoin="round">
<!-- Ornate candle with elaborate flame, moths circling, melting wax -->
<!-- Candlestick base - ornate pedestal -->
<path d="M155 390 Q155 385 160 382 Q170 378 180 380 Q190 378 200 380 Q210 378 220 380 Q230 378 240 382 Q245 385 245 390" />
<path d="M155 390 Q155 395 200 398 Q245 395 245 390" />
<path d="M160 382 Q165 375 175 372 Q185 370 200 370 Q215 370 225 372 Q235 375 240 382" />
<!-- Candlestick stem detail -->
<path d="M185 370 Q183 365 185 358 Q188 350 192 345" />
<path d="M215 370 Q217 365 215 358 Q212 350 208 345" />
<path d="M192 345 Q190 338 192 330 Q195 322 198 318" />
<path d="M208 345 Q210 338 208 330 Q205 322 202 318" />
<!-- Stem decorative bulge -->
<path d="M192 345 Q185 342 182 348 Q180 355 185 358" />
<path d="M208 345 Q215 342 218 348 Q220 355 215 358" />
<!-- Drip tray / bobeche -->
<path d="M170 318 Q172 312 178 310 Q188 308 200 308 Q212 308 222 310 Q228 312 230 318" />
<path d="M170 318 Q175 322 185 324 Q200 325 215 324 Q225 322 230 318" />
<!-- Candle body -->
<path d="M185 308 Q184 290 184 270 Q184 250 185 230 Q186 210 188 195" />
<path d="M215 308 Q216 290 216 270 Q216 250 215 230 Q214 210 212 195" />
<!-- Candle texture lines -->
<path d="M188 280 Q195 278 200 278 Q205 278 212 280" />
<path d="M187 260 Q195 258 200 258 Q205 258 213 260" />
<path d="M186 240 Q195 238 200 238 Q205 238 214 240" />
<path d="M186 220 Q195 218 200 218 Q205 218 214 220" />
<!-- Melting wax drips - left -->
<path d="M185 200 Q180 198 178 205 Q176 215 178 228 Q180 240 178 250" />
<path d="M184 215 Q178 212 175 218 Q172 228 175 242" />
<path d="M183 235 Q177 233 174 240 Q172 250 175 262 Q178 270 176 278" />
<!-- Wax drip ends (rounded bulbs) -->
<circle cx="178" cy="252" r="3" />
<circle cx="175" cy="244" r="2.5" />
<circle cx="176" cy="280" r="3" />
<!-- Melting wax drips - right -->
<path d="M215 200 Q220 198 222 205 Q224 215 222 228 Q220 240 222 250" />
<path d="M216 220 Q222 218 225 225 Q228 235 225 248" />
<path d="M217 240 Q223 238 226 245 Q228 255 225 268 Q222 278 224 285" />
<!-- Wax drip ends -->
<circle cx="222" cy="252" r="3" />
<circle cx="225" cy="250" r="2.5" />
<circle cx="224" cy="287" r="3" />
<!-- Wick -->
<path d="M200 195 Q199 188 200 182" />
<!-- Main flame - outer -->
<path d="M200 182 Q188 165 185 145 Q182 125 186 108 Q190 92 196 80 Q200 70 200 60 Q200 70 204 80 Q210 92 214 108 Q218 125 215 145 Q212 165 200 182" />
<!-- Flame - middle layer -->
<path d="M200 178 Q192 162 190 145 Q188 130 190 115 Q193 102 198 92 Q200 85 200 78 Q200 85 202 92 Q207 102 210 115 Q212 130 210 145 Q208 162 200 178" />
<!-- Flame - inner core -->
<path d="M200 175 Q196 162 195 148 Q194 135 196 125 Q198 115 200 108 Q202 115 204 125 Q206 135 205 148 Q204 162 200 175" />
<!-- Flame tip flicker -->
<path d="M200 60 Q198 52 200 45 Q202 38 200 30" />
<path d="M196 68 Q192 58 195 48" />
<path d="M204 68 Q208 58 205 48" />
<!-- Heat glow lines around flame -->
<path d="M178 140 Q172 135 175 128" />
<path d="M222 140 Q228 135 225 128" />
<path d="M175 160 Q168 155 170 148" />
<path d="M225 160 Q232 155 230 148" />
<path d="M180 110 Q175 105 178 98" />
<path d="M220 110 Q225 105 222 98" />
<!-- Moth 1 - upper left, approaching -->
<path d="M108 120 Q98 112 95 102 Q92 92 98 85 Q105 80 112 85 Q118 92 115 102 Q112 112 108 120" />
<path d="M108 120 Q100 125 95 135 Q92 145 98 150 Q105 154 112 148 Q118 140 115 130 Q112 125 108 120" />
<path d="M108 102 L108 140" />
<path d="M108 102 Q102 95 98 88" />
<path d="M108 102 Q114 95 118 88" />
<!-- Moth 1 wing detail -->
<path d="M102 98 Q100 92 104 90" />
<path d="M102 140 Q100 146 104 148" />
<!-- Moth 2 - right side, circling -->
<path d="M292 155 Q282 148 278 138 Q276 128 282 122 Q288 118 295 122 Q300 128 298 138 Q295 148 292 155" />
<path d="M292 155 Q285 160 282 170 Q280 178 285 184 Q292 188 298 182 Q302 175 300 165 Q298 158 292 155" />
<path d="M292 138 L292 175" />
<path d="M292 138 Q286 132 282 126" />
<path d="M292 138 Q298 132 302 126" />
<!-- Moth 2 wing detail -->
<path d="M285 134 Q283 128 286 125" />
<path d="M286 168 Q284 174 287 176" />
<!-- Moth 3 - small, upper right -->
<path d="M260 75 Q254 70 252 64 Q250 58 254 54 Q258 52 262 55 Q266 60 264 66 Q262 72 260 75" />
<path d="M260 75 Q256 78 254 84 Q252 90 256 93 Q260 95 264 91 Q266 86 264 80 Q262 78 260 75" />
<path d="M260 65 L260 85" />
<path d="M260 65 Q256 60 254 56" />
<path d="M260 65 Q264 60 266 56" />
<!-- Moth flight path traces (dotted arcs) -->
<path d="M115 120 Q135 105 155 100 Q175 98 185 108" />
<path d="M292 155 Q275 165 258 170 Q240 172 225 165" />
<path d="M260 75 Q248 80 238 88 Q228 96 220 105" />
<!-- Small sparks near flame -->
<circle cx="175" cy="85" r="2" />
<circle cx="225" cy="82" r="2" />
<circle cx="165" cy="100" r="1.5" />
<circle cx="235" cy="98" r="1.5" />
<circle cx="190" cy="42" r="1.5" />
<circle cx="210" cy="40" r="1.5" />
<circle cx="200" cy="22" r="1.5" />
<!-- Tiny floating embers -->
<circle cx="155" cy="65" r="1" />
<circle cx="245" cy="62" r="1" />
<circle cx="140" cy="88" r="1" />
<circle cx="252" cy="85" r="1" />
<circle cx="170" cy="50" r="1" />
<circle cx="230" cy="48" r="1" />
</svg>