<svg xmlns="http://www.w3.org/2000/svg" viewBox="0 0 400 400" fill="none" stroke="currentColor" stroke-width="2" stroke-linecap="round" stroke-linejoin="round">
<!-- Flame flower - large blooming fire blossom -->
<!-- Central stem -->
<path d="M200 390 Q198 370 197 350 Q196 330 198 310 Q199 290 200 270" />
<path d="M195 390 Q193 365 192 340 Q191 320 193 300 Q195 280 197 265" />
<path d="M205 390 Q207 365 208 340 Q209 320 207 300 Q205 280 203 265" />
<!-- Stem texture lines -->
<path d="M198 350 Q195 345 197 340" />
<path d="M202 330 Q205 325 203 320" />
<path d="M197 310 Q194 305 196 300" />
<!-- Left leaf on stem -->
<path d="M197 320 Q175 305 155 310 Q140 315 135 325 Q132 340 145 345 Q160 348 175 335 Q185 325 197 320" />
<path d="M197 320 Q170 318 155 325" />
<path d="M165 315 Q155 330 150 340" />
<!-- Right leaf on stem -->
<path d="M203 340 Q225 325 245 330 Q260 335 265 345 Q268 360 255 365 Q240 368 225 355 Q215 345 203 340" />
<path d="M203 340 Q230 338 245 345" />
<path d="M235 335 Q245 350 250 360" />
<!-- Flower base / calyx -->
<path d="M200 270 Q185 268 175 260 Q165 252 168 242 Q172 235 180 238 Q188 242 195 250 Q198 258 200 270" />
<path d="M200 270 Q215 268 225 260 Q235 252 232 242 Q228 235 220 238 Q212 242 205 250 Q202 258 200 270" />
<!-- Central petal - front (largest flame tongue) -->
<path d="M200 265 Q190 240 185 215 Q178 185 182 155 Q186 130 195 110 Q200 95 200 80 Q200 95 205 110 Q214 130 218 155 Q222 185 215 215 Q210 240 200 265" />
<path d="M200 260 Q193 238 190 218 Q186 195 188 170 Q191 148 198 130 Q200 120 202 130 Q209 148 212 170 Q214 195 210 218 Q207 238 200 260" />
<!-- Inner detail of central petal -->
<path d="M200 250 Q196 235 195 220 Q193 200 196 180 Q198 165 200 155 Q202 165 204 180 Q207 200 205 220 Q204 235 200 250" />
<!-- Left petal 1 (flame tongue curving left) -->
<path d="M195 258 Q178 245 160 235 Q138 225 120 228 Q105 232 98 245 Q92 260 100 272 Q110 282 125 278 Q142 272 158 258 Q175 245 195 258" />
<path d="M192 252 Q178 242 162 234 Q145 228 130 232 Q118 237 114 248 Q110 260 118 268 Q128 275 140 270 Q155 262 170 250 Q182 242 192 252" />
<!-- Inner vein of left petal 1 -->
<path d="M188 250 Q170 240 150 238 Q135 238 125 248 Q120 258 128 265" />
<!-- Left petal 2 (upper left flame) -->
<path d="M192 250 Q172 230 155 210 Q138 188 130 165 Q125 145 132 128 Q140 115 152 118 Q165 122 172 140 Q178 160 180 182 Q182 205 192 250" />
<path d="M188 245 Q172 225 158 208 Q145 190 140 172 Q136 155 142 140 Q148 130 158 132 Q166 136 170 150 Q175 168 178 190 Q180 212 188 245" />
<!-- Inner vein of left petal 2 -->
<path d="M185 240 Q168 218 155 198 Q145 180 143 162 Q142 148 150 138" />
<!-- Right petal 1 (flame tongue curving right) -->
<path d="M205 258 Q222 245 240 235 Q262 225 280 228 Q295 232 302 245 Q308 260 300 272 Q290 282 275 278 Q258 272 242 258 Q225 245 205 258" />
<path d="M208 252 Q222 242 238 234 Q255 228 270 232 Q282 237 286 248 Q290 260 282 268 Q272 275 260 270 Q245 262 230 250 Q218 242 208 252" />
<!-- Inner vein of right petal 1 -->
<path d="M212 250 Q230 240 250 238 Q265 238 275 248 Q280 258 272 265" />
<!-- Right petal 2 (upper right flame) -->
<path d="M208 250 Q228 230 245 210 Q262 188 270 165 Q275 145 268 128 Q260 115 248 118 Q235 122 228 140 Q222 160 220 182 Q218 205 208 250" />
<path d="M212 245 Q228 225 242 208 Q255 190 260 172 Q264 155 258 140 Q252 130 242 132 Q234 136 230 150 Q225 168 222 190 Q220 212 212 245" />
<!-- Inner vein of right petal 2 -->
<path d="M215 240 Q232 218 245 198 Q255 180 257 162 Q258 148 250 138" />
<!-- Upper left petal (reaching up-left) -->
<path d="M195 245 Q180 218 168 190 Q158 162 160 135 Q162 112 172 98 Q182 88 190 95 Q196 105 195 120 Q193 140 188 162 Q183 185 195 245" />
<path d="M192 240 Q180 215 170 192 Q162 170 164 148 Q166 128 175 116 Q183 108 188 115 Q192 125 190 142 Q187 162 192 240" />
<!-- Upper right petal (reaching up-right) -->
<path d="M205 245 Q220 218 232 190 Q242 162 240 135 Q238 112 228 98 Q218 88 210 95 Q204 105 205 120 Q207 140 212 162 Q217 185 205 245" />
<path d="M208 240 Q220 215 230 192 Q238 170 236 148 Q234 128 225 116 Q217 108 212 115 Q208 125 210 142 Q213 162 208 240" />
<!-- Central stamen cluster -->
<path d="M200 260 Q198 248 196 238 Q194 225 196 215" />
<path d="M200 260 Q202 248 204 238 Q206 225 204 215" />
<path d="M200 260 Q195 250 190 242 Q185 232 188 222" />
<path d="M200 260 Q205 250 210 242 Q215 232 212 222" />
<!-- Stamen tips (spark-like) -->
<circle cx="196" cy="212" r="3" />
<circle cx="204" cy="212" r="3" />
<circle cx="188" cy="219" r="3" />
<circle cx="212" cy="219" r="3" />
<circle cx="200" cy="208" r="2" />
<!-- Floating sparks around the flower -->
<circle cx="130" cy="110" r="2" />
<circle cx="270" cy="105" r="2" />
<circle cx="90" cy="235" r="2.5" />
<circle cx="310" cy="230" r="2.5" />
<circle cx="150" cy="80" r="1.5" />
<circle cx="250" cy="75" r="1.5" />
<circle cx="105" cy="175" r="2" />
<circle cx="295" cy="170" r="2" />
<circle cx="175" cy="70" r="1.5" />
<circle cx="225" cy="68" r="1.5" />
<circle cx="85" cy="260" r="1.5" />
<circle cx="315" cy="255" r="1.5" />
<!-- Swirling energy lines around flower -->
<path d="M100 290 Q85 270 82 250 Q80 230 88 215 Q95 200 108 195" />
<path d="M300 290 Q315 270 318 250 Q320 230 312 215 Q305 200 292 195" />
<path d="M75 250 Q70 235 72 220 Q75 208 85 200" />
<path d="M325 250 Q330 235 328 220 Q325 208 315 200" />
<!-- Small heat wisps -->
<path d="M145 90 Q142 82 146 75 Q150 68 148 60" />
<path d="M255 85 Q258 77 254 70 Q250 63 252 55" />
<path d="M200 65 Q198 55 200 48 Q202 40 200 32" />
<!-- Texture dots scattered -->
<circle cx="178" cy="150" r="1" />
<circle cx="222" cy="148" r="1" />
<circle cx="165" cy="200" r="1" />
<circle cx="235" cy="198" r="1" />
<circle cx="140" cy="250" r="1" />
<circle cx="260" cy="248" r="1" />
<circle cx="155" cy="165" r="1" />
<circle cx="245" cy="163" r="1" />
</svg>