<svg xmlns="http://www.w3.org/2000/svg" viewBox="0 0 400 400" fill="none" stroke="currentColor" stroke-width="2" stroke-linecap="round" stroke-linejoin="round">
<!-- Hand reaching up releasing constellation of sparks -->
<!-- Forearm base -->
<path d="M155 395 Q152 380 150 360 Q148 340 150 320 Q152 300 158 285" />
<path d="M245 395 Q248 380 250 360 Q252 340 250 320 Q248 300 242 285" />
<!-- Wrist detail lines -->
<path d="M155 350 Q175 345 200 344 Q225 345 245 350" />
<path d="M153 340 Q175 336 200 335 Q225 336 247 340" />
<!-- Palm -->
<path d="M158 285 Q155 268 158 252 Q162 238 170 228 Q180 220 192 218" />
<path d="M242 285 Q245 268 242 252 Q238 238 230 228 Q220 220 208 218" />
<path d="M192 218 Q196 215 200 214 Q204 215 208 218" />
<!-- Palm lines detail -->
<path d="M168 270 Q180 262 195 260 Q210 262 225 268" />
<path d="M172 258 Q185 252 200 250 Q215 252 228 256" />
<path d="M178 245 Q190 240 200 238 Q210 240 222 244" />
<!-- Thumb -->
<path d="M158 270 Q148 262 142 250 Q138 238 140 225 Q142 215 148 208 Q155 202 162 205 Q168 210 168 220 Q167 232 168 245" />
<path d="M148 255 Q145 245 146 235 Q148 225 152 218" />
<!-- Index finger -->
<path d="M180 220 Q178 205 175 190 Q172 175 170 160 Q168 148 172 138 Q178 130 185 135 Q190 142 190 155 Q189 168 188 182 Q188 198 192 218" />
<!-- Middle finger (tallest) -->
<path d="M192 218 Q192 200 190 182 Q188 162 186 142 Q185 125 188 112 Q192 102 200 105 Q208 102 212 112 Q215 125 214 142 Q212 162 210 182 Q208 200 208 218" />
<!-- Ring finger -->
<path d="M208 218 Q212 198 212 182 Q211 168 210 155 Q210 142 215 135 Q222 130 228 138 Q232 148 230 160 Q228 175 225 190 Q222 205 220 220" />
<!-- Pinky finger -->
<path d="M225 228 Q228 215 230 200 Q232 188 232 175 Q230 165 225 158 Q218 155 214 162 Q212 172 214 185 Q215 198 215 210" />
<!-- Finger joint lines -->
<path d="M175 175 Q178 172 182 175" />
<path d="M190 162 Q195 158 200 158 Q205 158 210 162" />
<path d="M222 175 Q225 172 228 175" />
<path d="M218 190 Q220 187 223 190" />
<!-- Fingertip details -->
<path d="M172 142 Q175 135 180 138" />
<path d="M188 115 Q195 108 200 108 Q205 108 212 115" />
<path d="M228 142 Q225 135 220 138" />
<!-- Energy radiating from palm center -->
<path d="M192 238 Q188 230 182 225 Q178 218 175 210" />
<path d="M200 235 Q200 225 200 215 Q200 205 200 195" />
<path d="M208 238 Q212 230 218 225 Q222 218 225 210" />
<!-- Primary sparks constellation (large) -->
<path d="M170 130 Q165 122 168 115 Q172 108 170 100" />
<path d="M200 90 Q196 80 200 72 Q204 64 200 55" />
<path d="M230 125 Q235 117 232 110 Q228 103 230 95" />
<!-- Spark cluster - upper area -->
<circle cx="200" cy="50" r="4" />
<circle cx="175" cy="75" r="3.5" />
<circle cx="228" cy="70" r="3.5" />
<circle cx="148" cy="95" r="3" />
<circle cx="252" cy="90" r="3" />
<circle cx="200" cy="30" r="3" />
<circle cx="165" cy="45" r="2.5" />
<circle cx="238" cy="42" r="2.5" />
<circle cx="140" cy="65" r="2.5" />
<circle cx="260" cy="62" r="2.5" />
<!-- Smaller sparks - scattered wider -->
<circle cx="120" cy="85" r="2" />
<circle cx="280" cy="80" r="2" />
<circle cx="105" cy="110" r="2" />
<circle cx="295" cy="105" r="2" />
<circle cx="130" cy="48" r="2" />
<circle cx="270" cy="45" r="2" />
<circle cx="185" cy="20" r="2" />
<circle cx="215" cy="18" r="2" />
<circle cx="155" cy="28" r="1.5" />
<circle cx="248" cy="25" r="1.5" />
<!-- Tiny distant sparks -->
<circle cx="100" cy="55" r="1.5" />
<circle cx="300" cy="50" r="1.5" />
<circle cx="88" cy="130" r="1.5" />
<circle cx="312" cy="125" r="1.5" />
<circle cx="200" cy="10" r="1.5" />
<circle cx="170" cy="8" r="1" />
<circle cx="232" cy="12" r="1" />
<circle cx="145" cy="15" r="1" />
<circle cx="258" cy="18" r="1" />
<!-- Small flame shapes rising from fingertips -->
<path d="M170 155 Q165 145 168 135 Q170 128 168 120" />
<path d="M188 125 Q185 115 188 105 Q190 98 188 90" />
<path d="M200 105 Q198 95 200 85 Q202 78 200 70" />
<path d="M212 125 Q215 115 212 105 Q210 98 212 90" />
<path d="M230 155 Q235 145 232 135 Q230 128 232 120" />
<!-- Energy rays from palm -->
<path d="M185 225 Q175 210 162 195 Q150 182 140 172" />
<path d="M215 225 Q225 210 238 195 Q250 182 260 172" />
<path d="M195 220 Q188 205 180 188 Q172 172 168 158" />
<path d="M205 220 Q212 205 220 188 Q228 172 232 158" />
<!-- Spark connection lines (constellation effect) -->
<path d="M200 50 Q188 62 175 75" />
<path d="M200 50 Q214 60 228 70" />
<path d="M175 75 Q158 82 148 95" />
<path d="M228 70 Q242 78 252 90" />
<path d="M200 30 Q192 38 185 20" />
<path d="M200 30 Q210 38 215 18" />
<!-- Texture dots on hand -->
<circle cx="185" cy="250" r="1" />
<circle cx="200" cy="248" r="1" />
<circle cx="215" cy="250" r="1" />
<circle cx="190" cy="262" r="1" />
<circle cx="210" cy="260" r="1" />
</svg>