<svg xmlns="http://www.w3.org/2000/svg" viewBox="0 0 400 400" fill="none" stroke="currentColor" stroke-width="2" stroke-linecap="round" stroke-linejoin="round">
<!-- Phoenix rising from ashes and embers -->
<!-- Body center line -->
<path d="M200 360 Q198 330 196 300 Q195 275 198 250 Q200 230 200 210" />
<path d="M200 360 Q202 330 204 300 Q205 275 202 250 Q200 230 200 210" />
<!-- Chest feather texture -->
<path d="M196 300 Q190 295 192 288 Q194 280 198 278" />
<path d="M204 300 Q210 295 208 288 Q206 280 202 278" />
<path d="M195 275 Q188 270 190 262 Q193 255 198 252" />
<path d="M205 275 Q212 270 210 262 Q207 255 202 252" />
<path d="M197 250 Q192 245 194 238 Q196 232 200 230" />
<path d="M203 250 Q208 245 206 238 Q204 232 200 230" />
<!-- Head -->
<path d="M200 210 Q192 200 188 188 Q185 175 190 165 Q195 158 200 155 Q205 158 210 165 Q215 175 212 188 Q208 200 200 210" />
<!-- Eye -->
<circle cx="195" cy="180" r="3" />
<circle cx="195" cy="180" r="1.5" />
<!-- Beak -->
<path d="M200 188 Q205 192 210 188 Q215 184 218 178 Q215 180 210 182 Q205 185 200 188" />
<!-- Head crest / crown flames -->
<path d="M195 165 Q188 148 185 130 Q183 115 188 100 Q192 90 195 85" />
<path d="M200 155 Q200 138 198 120 Q196 102 200 85 Q202 75 200 65" />
<path d="M205 165 Q212 148 215 130 Q217 115 212 100 Q208 90 205 85" />
<path d="M192 160 Q182 142 178 125 Q175 108 180 92" />
<path d="M208 160 Q218 142 222 125 Q225 108 220 92" />
<!-- Crest flame inner details -->
<path d="M190 140 Q188 130 190 118 Q192 108 195 100" />
<path d="M210 140 Q212 130 210 118 Q208 108 205 100" />
<!-- Left wing - primary feathers (large sweeping flames) -->
<path d="M195 230 Q170 218 142 208 Q115 200 90 198 Q65 198 48 208 Q35 220 38 235 Q42 248 58 252 Q75 254 95 248 Q118 240 140 228 Q165 215 195 230" />
<path d="M192 240 Q165 228 135 220 Q108 215 82 216 Q60 220 50 232 Q42 245 52 258 Q65 268 85 265 Q108 258 132 245 Q158 232 192 240" />
<path d="M190 255 Q162 248 135 245 Q110 245 88 252 Q70 262 68 278 Q70 292 85 295 Q102 295 122 282 Q145 268 190 255" />
<!-- Left wing secondary feathers -->
<path d="M188 218 Q162 205 138 195 Q115 188 95 188 Q78 192 68 202" />
<path d="M185 225 Q158 215 130 210 Q105 208 85 212 Q68 220 60 232" />
<!-- Left wing feather texture -->
<path d="M130 215 Q125 210 128 205" />
<path d="M108 212 Q105 208 108 203" />
<path d="M85 218 Q82 213 85 208" />
<path d="M115 238 Q110 233 113 228" />
<path d="M95 248 Q90 243 93 238" />
<!-- Right wing - primary feathers (large sweeping flames) -->
<path d="M205 230 Q230 218 258 208 Q285 200 310 198 Q335 198 352 208 Q365 220 362 235 Q358 248 342 252 Q325 254 305 248 Q282 240 260 228 Q235 215 205 230" />
<path d="M208 240 Q235 228 265 220 Q292 215 318 216 Q340 220 350 232 Q358 245 348 258 Q335 268 315 265 Q292 258 268 245 Q242 232 208 240" />
<path d="M210 255 Q238 248 265 245 Q290 245 312 252 Q330 262 332 278 Q330 292 315 295 Q298 295 278 282 Q255 268 210 255" />
<!-- Right wing secondary feathers -->
<path d="M212 218 Q238 205 262 195 Q285 188 305 188 Q322 192 332 202" />
<path d="M215 225 Q242 215 270 210 Q295 208 315 212 Q332 220 340 232" />
<!-- Right wing feather texture -->
<path d="M270 215 Q275 210 272 205" />
<path d="M292 212 Q295 208 292 203" />
<path d="M315 218 Q318 213 315 208" />
<path d="M285 238 Q290 233 287 228" />
<path d="M305 248 Q310 243 307 238" />
<!-- Tail feathers (long flowing flames downward) -->
<path d="M198 340 Q188 355 178 372 Q170 385 160 395" />
<path d="M200 350 Q195 365 188 378 Q182 388 175 398" />
<path d="M200 345 Q200 365 200 380 Q200 392 200 400" />
<path d="M202 340 Q212 355 222 372 Q230 385 240 395" />
<path d="M200 350 Q205 365 212 378 Q218 388 225 398" />
<!-- Tail feather inner patterns -->
<path d="M185 360 Q180 368 176 378" />
<path d="M215 360 Q220 368 224 378" />
<path d="M192 365 Q188 375 185 385" />
<path d="M208 365 Q212 375 215 385" />
<!-- Ash and ember bed at bottom -->
<path d="M100 385 Q120 378 145 380 Q170 382 195 378 Q220 382 245 380 Q270 378 300 385" />
<path d="M85 395 Q110 388 140 390 Q170 392 200 388 Q230 392 260 390 Q290 388 315 395" />
<!-- Scattered embers below -->
<circle cx="120" cy="370" r="2.5" />
<circle cx="155" cy="375" r="2" />
<circle cx="245" cy="372" r="2" />
<circle cx="280" cy="368" r="2.5" />
<circle cx="140" cy="388" r="1.5" />
<circle cx="260" cy="385" r="1.5" />
<circle cx="175" cy="392" r="2" />
<circle cx="225" cy="390" r="2" />
<circle cx="105" cy="380" r="1.5" />
<circle cx="295" cy="378" r="1.5" />
<!-- Rising sparks and embers -->
<circle cx="55" cy="195" r="2" />
<circle cx="345" cy="192" r="2" />
<circle cx="42" cy="225" r="1.5" />
<circle cx="358" cy="222" r="1.5" />
<circle cx="178" cy="78" r="2" />
<circle cx="222" cy="75" r="2" />
<circle cx="200" cy="55" r="2.5" />
<circle cx="170" cy="60" r="1.5" />
<circle cx="230" cy="58" r="1.5" />
<!-- Upward energy wisps -->
<path d="M190 80 Q185 68 188 55 Q190 45 188 35" />
<path d="M210 78 Q215 65 212 52 Q210 42 212 32" />
<path d="M200 55 Q198 42 200 30 Q202 20 200 12" />
<!-- Small spark shapes -->
<path d="M165 55 Q162 48 165 42" />
<path d="M235 52 Q238 45 235 38" />
<path d="M145 75 Q142 68 145 62" />
<path d="M255 72 Q258 65 255 58" />
</svg>