<svg xmlns="http://www.w3.org/2000/svg" viewBox="0 0 400 400" fill="none" stroke="currentColor" stroke-width="2" stroke-linecap="round" stroke-linejoin="round">
<!-- Blacksmith's forge with anvil, hammer, flames, and sparks -->
<!-- Anvil body -->
<path d="M130 280 Q128 275 125 270 Q120 265 115 262 Q108 260 100 262 Q95 265 92 270 L92 290 Q95 295 100 298 Q108 300 120 300 Q135 300 150 300 Q180 300 200 300 Q220 300 250 300 Q265 300 280 300 Q292 300 300 298 Q305 295 308 290 L308 270 Q305 265 300 262 Q292 260 285 262 Q280 265 275 270 Q272 275 270 280" />
<!-- Anvil top surface -->
<path d="M130 280 Q135 275 145 272 Q160 270 180 270 Q200 268 220 270 Q240 270 255 272 Q265 275 270 280" />
<!-- Anvil horn (pointed end left) -->
<path d="M100 262 Q85 255 72 252 Q60 250 50 252 Q45 255 42 260 Q40 265 42 270 Q45 275 50 278 Q58 280 68 278 Q78 275 88 272 Q92 270 92 268" />
<!-- Anvil base -->
<path d="M115 300 Q112 310 110 320 Q108 335 112 345 Q118 352 130 355 Q150 358 170 358 Q190 360 200 360 Q210 360 230 358 Q250 358 270 355 Q282 352 288 345 Q292 335 290 320 Q288 310 285 300" />
<path d="M125 340 Q150 345 175 346 Q200 348 225 346 Q250 345 275 340" />
<!-- Anvil base feet -->
<path d="M115 355 Q112 365 115 375 Q118 382 125 385" />
<path d="M285 355 Q288 365 285 375 Q282 382 275 385" />
<path d="M125 385 Q150 390 200 392 Q250 390 275 385" />
<!-- Hammer (raised, about to strike) -->
<path d="M220 140 Q225 135 232 130 Q240 125 248 122 Q255 120 260 122 Q268 125 272 132 Q275 140 272 148 Q268 155 260 158 Q252 160 245 158 Q238 155 232 150 Q225 145 220 140" />
<!-- Hammer face -->
<path d="M248 122 Q255 118 260 122" />
<path d="M250 158 Q256 162 262 158" />
<!-- Hammer handle -->
<path d="M220 140 Q210 148 198 158 Q188 168 180 178 Q172 188 168 198 Q165 208 162 218 Q160 228 158 238 Q155 248 152 258 Q150 268 148 275" />
<path d="M225 145 Q215 152 205 162 Q195 172 187 182 Q180 192 175 202 Q172 212 168 222 Q165 232 162 242 Q160 252 158 262 Q155 270 152 278" />
<!-- Hammer handle grip lines -->
<path d="M190 170 Q188 175 192 178" />
<path d="M178 190 Q175 195 180 198" />
<path d="M168 210 Q165 215 170 218" />
<path d="M160 230 Q157 235 162 238" />
<!-- Forge fire below anvil - main flame mass -->
<path d="M100 385 Q95 370 98 352 Q102 338 110 325 Q118 315 128 310 Q122 322 118 335 Q115 348 118 358" />
<path d="M128 310 Q135 298 148 290 Q158 285 168 282 Q155 295 148 308 Q142 322 145 335 Q148 345 145 358" />
<path d="M168 282 Q178 275 190 272 Q200 270 210 272 Q198 280 190 292 Q185 305 188 318 Q190 330 188 345" />
<path d="M210 272 Q222 275 232 282 Q242 285 252 290 Q245 305 240 318 Q238 332 240 345" />
<path d="M252 290 Q265 298 272 310 Q278 322 282 335 Q285 348 282 358" />
<path d="M272 310 Q280 315 288 325 Q295 338 298 352 Q302 370 300 385" />
<!-- Inner fire details -->
<path d="M140 330 Q145 318 155 310 Q162 305 170 302 Q160 315 158 328 Q156 340 160 350" />
<path d="M200 295 Q205 308 202 320 Q200 332 205 342" />
<path d="M240 310 Q245 302 255 298 Q248 312 245 325 Q242 338 245 350" />
<!-- Sparks flying from hammer impact point -->
<path d="M195 270 Q185 258 178 248 Q172 240 165 235" />
<path d="M205 268 Q215 255 225 245 Q232 238 240 232" />
<path d="M198 268 Q195 252 192 238 Q190 225 192 215" />
<path d="M202 268 Q205 252 208 238 Q210 225 208 215" />
<path d="M195 270 Q182 262 170 258 Q160 255 150 255" />
<path d="M205 268 Q218 260 230 255 Q240 252 252 252" />
<!-- Spark dots -->
<circle cx="165" cy="232" r="2.5" />
<circle cx="240" cy="228" r="2.5" />
<circle cx="192" cy="212" r="2" />
<circle cx="208" cy="210" r="2" />
<circle cx="150" cy="252" r="2" />
<circle cx="252" cy="248" r="2" />
<circle cx="175" cy="242" r="1.5" />
<circle cx="228" cy="238" r="1.5" />
<circle cx="155" cy="240" r="1.5" />
<circle cx="245" cy="235" r="1.5" />
<circle cx="200" cy="200" r="2" />
<circle cx="185" cy="220" r="1.5" />
<circle cx="218" cy="218" r="1.5" />
<!-- Tools hanging on wall (background) -->
<!-- Tongs -->
<path d="M50 100 Q48 115 45 130 Q42 145 40 160 Q38 175 42 185" />
<path d="M60 100 Q58 115 55 130 Q52 145 50 160 Q48 175 52 185" />
<path d="M42 185 Q38 192 35 200" />
<path d="M52 185 Q56 192 58 200" />
<path d="M50 100 Q55 98 60 100" />
<!-- Hook for tongs -->
<path d="M52 90 Q55 85 58 90 Q60 95 55 98" />
<!-- Second tool - file/rasp -->
<path d="M340 95 Q342 110 343 130 Q344 150 345 170 Q345 185 344 200" />
<path d="M348 95 Q350 110 351 130 Q352 150 352 170 Q352 185 351 200" />
<path d="M340 95 Q344 90 348 95" />
<path d="M344 200 Q348 205 351 200" />
<!-- File teeth marks -->
<path d="M342 120 L350 125" />
<path d="M342 135 L350 140" />
<path d="M342 150 L350 155" />
<path d="M342 165 L350 170" />
<path d="M342 180 L350 185" />
<!-- Hook for file -->
<path d="M342 85 Q344 80 346 85 Q348 90 344 92" />
<!-- Smoke/heat wisps above -->
<path d="M180 50 Q175 38 180 28 Q185 18 180 8" />
<path d="M220 45 Q225 32 220 22 Q215 12 220 2" />
<path d="M200 55 Q198 42 200 32 Q202 22 200 12" />
</svg>