<svg xmlns="http://www.w3.org/2000/svg" viewBox="0 0 400 400" fill="none" stroke="currentColor" stroke-width="2" stroke-linecap="round" stroke-linejoin="round">
  <!-- Distant mountain range - back layer -->
  <path d="M0 180 Q20 170 40 155 Q60 135 80 120 Q95 108 110 100 Q125 95 135 100 Q145 108 155 120 Q165 130 175 140 Q185 148 192 150" />
  <path d="M192 150 Q200 145 210 135 Q225 120 240 108 Q255 98 265 95 Q275 92 285 98 Q295 105 305 118 Q315 132 325 145 Q335 155 345 162 Q360 172 380 178 Q390 180 400 180" />
  <!-- Distant mountain range - front layer -->
  <path d="M0 220 Q15 215 30 205 Q50 188 70 175 Q90 165 105 160 Q118 158 128 162 Q140 170 150 180 Q160 188 168 195 Q178 200 190 205" />
  <path d="M190 205 Q205 198 215 188 Q230 175 248 162 Q265 152 278 148 Q290 146 300 150 Q312 158 322 170 Q335 182 348 192 Q360 200 375 208 Q388 215 400 220" />
  <!-- Mountain texture details - back range -->
  <path d="M85 115 Q90 110 95 112" />
  <path d="M100 105 Q105 100 110 102" />
  <path d="M245 105 Q250 100 255 102" />
  <path d="M270 98 Q275 94 280 96" />
  <!-- Mountain ridge lines -->
  <path d="M45 148 Q55 140 65 135" />
  <path d="M120 105 Q125 100 130 102" />
  <path d="M290 100 Q295 96 300 98" />
  <path d="M320 125 Q325 120 330 122" />
  <!-- Snow caps/highlights on peaks -->
  <path d="M105 100 Q110 96 115 98 Q120 96 125 100" />
  <path d="M260 95 Q265 90 270 92 Q275 90 280 95" />
  <!-- Valley/ridge where cairn sits -->
  <path d="M0 290 Q30 285 60 282 Q90 278 120 275 Q150 272 170 270 Q185 268 195 266 Q200 265 205 266 Q215 268 230 270 Q250 272 280 275 Q310 278 340 282 Q370 285 400 290" />
  <!-- Ridge texture -->
  <path d="M40 284 Q50 280 60 282" />
  <path d="M100 278 Q110 274 120 276" />
  <path d="M280 276 Q290 273 300 275" />
  <path d="M340 282 Q350 278 360 280" />
  <!-- Ridge rock details -->
  <path d="M160 272 Q165 268 170 270" />
  <path d="M230 270 Q235 266 240 268" />
  <!-- Cairn - Bottom stone (largest, wide and flat) -->
  <path d="M155 266 Q165 258 180 254 Q192 252 200 250 Q208 252 220 254 Q235 258 245 266" />
  <path d="M155 266 Q165 272 180 274 Q192 276 200 277 Q208 276 220 274 Q235 272 245 266" />
  <!-- Bottom stone texture -->
  <path d="M170 260 Q185 257 200 256 Q215 257 230 260" />
  <path d="M168 268 Q185 265 200 264 Q215 265 232 268" />
  <!-- Second stone (asymmetric, slightly offset left) -->
  <path d="M162 250 Q170 240 182 236 Q195 234 205 236 Q218 240 225 248" />
  <path d="M162 250 Q170 256 185 258 Q198 258 210 256 Q222 254 225 248" />
  <!-- Second stone texture -->
  <path d="M175 244 Q190 240 205 242" />
  <path d="M172 252 Q188 248 208 250" />
  <!-- Third stone (rounder, slightly offset right) -->
  <path d="M172 236 Q180 226 190 222 Q200 220 210 222 Q220 226 228 234" />
  <path d="M172 236 Q180 242 192 244 Q202 244 214 242 Q225 240 228 234" />
  <!-- Third stone texture -->
  <path d="M185 228 Q198 224 212 228" />
  <path d="M183 238 Q198 234 215 237" />
  <!-- Fourth stone (smaller, elongated) -->
  <path d="M178 222 Q185 212 195 208 Q200 206 208 208 Q218 212 222 220" />
  <path d="M178 222 Q185 227 195 228 Q204 228 215 226 Q222 224 222 220" />
  <!-- Fourth stone texture -->
  <path d="M190 214 Q200 210 212 214" />
  <!-- Fifth stone (small, tilted) -->
  <path d="M184 208 Q190 198 198 194 Q205 192 210 196 Q215 200 218 206" />
  <path d="M184 208 Q190 212 198 213 Q206 213 214 210 Q218 208 218 206" />
  <!-- Top stone (smallest, rounded) -->
  <path d="M190 194 Q195 185 200 182 Q205 185 210 192" />
  <path d="M190 194 Q195 198 200 199 Q205 198 210 192" />
  <!-- Top stone texture -->
  <path d="M196 188 Q200 186 204 188" />
  <!-- Small balancing pebble on very top -->
  <path d="M196 182 Q198 177 200 175 Q202 177 204 182" />
  <!-- Stone surface texture marks -->
  <circle cx="180" cy="260" r="1" />
  <circle cx="220" cy="258" r="1" />
  <circle cx="195" cy="240" r="1" />
  <circle cx="210" cy="230" r="1" />
  <circle cx="200" cy="216" r="1" />
  <!-- Foreground slope left -->
  <path d="M0 390 Q20 380 45 370 Q70 360 100 350 Q130 340 155 332 Q175 326 190 320 Q195 318 200 316" />
  <!-- Foreground slope right -->
  <path d="M400 390 Q380 380 355 370 Q330 360 300 350 Q270 340 245 332 Q225 326 210 320 Q205 318 200 316" />
  <!-- Foreground texture - rocks and vegetation -->
  <path d="M30 378 Q35 372 42 374" />
  <path d="M75 360 Q80 354 87 356" />
  <path d="M130 342 Q135 336 142 338" />
  <path d="M370 378 Q365 372 358 374" />
  <path d="M325 360 Q320 354 313 356" />
  <path d="M270 342 Q265 336 258 338" />
  <!-- Small grass tufts on ridge -->
  <path d="M145 272 Q143 266 140 262" />
  <path d="M145 272 Q145 265 146 261" />
  <path d="M145 272 Q148 266 150 262" />
  <path d="M255 272 Q253 266 250 262" />
  <path d="M255 272 Q255 265 256 261" />
  <path d="M255 272 Q258 266 260 262" />
  <!-- More grass patches -->
  <path d="M120 276 Q118 270 116 266" />
  <path d="M120 276 Q120 269 121 265" />
  <path d="M280 276 Q282 270 284 266" />
  <path d="M280 276 Q280 269 279 265" />
  <!-- Small wildflowers near cairn -->
  <path d="M140 273 Q138 268 136 264" />
  <circle cx="136" cy="261" r="2.5" />
  <path d="M260 273 Q262 268 264 264" />
  <circle cx="264" cy="261" r="2.5" />
  <!-- Birds in distance -->
  <path d="M60 80 Q65 75 70 78 Q75 75 80 80" />
  <path d="M72 72 Q76 68 80 70 Q84 68 88 72" />
  <path d="M320 70 Q325 65 330 68 Q335 65 340 70" />
  <path d="M340 60 Q344 56 348 58 Q352 56 356 60" />
  <path d="M350 68 Q354 64 358 66 Q362 64 366 68" />
  <!-- Clouds wisps -->
  <path d="M20 50 Q35 45 50 48 Q62 44 75 50" />
  <path d="M28 58 Q40 55 52 57" />
  <path d="M310 42 Q325 37 340 40 Q355 36 370 42" />
  <path d="M320 50 Q335 47 348 50" />
  <!-- Small cloud -->
  <path d="M150 55 Q162 48 175 52 Q185 46 198 52 Q205 48 215 55" />
  <!-- Valley depth shading lines -->
  <path d="M0 305 Q50 298 100 295 Q150 290 200 288 Q250 290 300 295 Q350 298 400 305" />
  <path d="M0 320 Q60 312 120 308 Q180 304 200 302 Q220 304 280 308 Q340 312 400 320" />
  <path d="M0 340 Q70 330 140 325 Q180 320 200 318 Q220 320 260 325 Q330 330 400 340" />
  <path d="M0 365 Q80 352 160 345 Q190 340 200 338 Q210 340 240 345 Q320 352 400 365" />
  <!-- Scattered pebbles on ridge -->
  <circle cx="170" cy="270" r="2" />
  <circle cx="232" cy="269" r="2" />
  <circle cx="155" cy="273" r="1.5" />
  <circle cx="245" cy="272" r="1.5" />
  <circle cx="190" cy="300" r="1.5" />
  <circle cx="210" cy="298" r="1.5" />
</svg>