<svg xmlns="http://www.w3.org/2000/svg" viewBox="0 0 400 400" fill="none" stroke="currentColor" stroke-width="2" stroke-linecap="round" stroke-linejoin="round">
  <!-- Stone archway - outer left pillar -->
  <path d="M80 390 L80 130 Q80 80 120 55 Q150 38 175 32" />
  <path d="M120 390 L120 140 Q120 100 148 78 Q165 65 175 60" />
  <!-- Stone archway - outer right pillar -->
  <path d="M320 390 L320 130 Q320 80 280 55 Q250 38 225 32" />
  <path d="M280 390 L280 140 Q280 100 252 78 Q235 65 225 60" />
  <!-- Arch top -->
  <path d="M175 32 Q195 25 200 24 Q205 25 225 32" />
  <path d="M175 60 Q195 52 200 50 Q205 52 225 60" />
  <!-- Keystone -->
  <path d="M190 32 L188 24 Q195 20 200 18 Q205 20 212 24 L210 32" />
  <path d="M190 32 L210 32" />
  <!-- Stone block lines - left pillar -->
  <path d="M80 160 L120 160" />
  <path d="M80 190 L120 190" />
  <path d="M80 220 L120 220" />
  <path d="M80 250 L120 250" />
  <path d="M80 280 L120 280" />
  <path d="M80 310 L120 310" />
  <path d="M80 340 L120 340" />
  <path d="M80 370 L120 370" />
  <!-- Stone block vertical offsets - left -->
  <path d="M100 160 L100 190" />
  <path d="M95 190 L95 220" />
  <path d="M105 220 L105 250" />
  <path d="M100 250 L100 280" />
  <path d="M95 280 L95 310" />
  <path d="M105 310 L105 340" />
  <path d="M100 340 L100 370" />
  <path d="M95 370 L95 390" />
  <!-- Stone block lines - right pillar -->
  <path d="M280 160 L320 160" />
  <path d="M280 190 L320 190" />
  <path d="M280 220 L320 220" />
  <path d="M280 250 L320 250" />
  <path d="M280 280 L320 280" />
  <path d="M280 310 L320 310" />
  <path d="M280 340 L320 340" />
  <path d="M280 370 L320 370" />
  <!-- Stone block vertical offsets - right -->
  <path d="M300 160 L300 190" />
  <path d="M305 190 L305 220" />
  <path d="M295 220 L295 250" />
  <path d="M300 250 L300 280" />
  <path d="M305 280 L305 310" />
  <path d="M295 310 L295 340" />
  <path d="M300 340 L300 370" />
  <path d="M305 370 L305 390" />
  <!-- Arch stone voussoirs -->
  <path d="M130 130 Q132 110 140 95 Q148 80 158 70" />
  <path d="M145 118 Q148 100 156 88 Q164 76 172 68" />
  <path d="M158 105 Q162 92 168 82 Q175 72 182 65" />
  <path d="M270 130 Q268 110 260 95 Q252 80 242 70" />
  <path d="M255 118 Q252 100 244 88 Q236 76 228 68" />
  <path d="M242 105 Q238 92 232 82 Q225 72 218 65" />
  <!-- Mortar texture dots in stones -->
  <circle cx="90" cy="175" r="1" />
  <circle cx="108" cy="205" r="1" />
  <circle cx="95" cy="235" r="1" />
  <circle cx="105" cy="265" r="1" />
  <circle cx="90" cy="295" r="1" />
  <circle cx="310" cy="175" r="1" />
  <circle cx="292" cy="205" r="1" />
  <circle cx="305" cy="235" r="1" />
  <circle cx="295" cy="265" r="1" />
  <circle cx="310" cy="295" r="1" />
  <!-- Cobblestone path through arch -->
  <path d="M140 390 Q160 385 175 388 Q190 384 200 386 Q210 384 225 388 Q240 385 260 390" />
  <path d="M130 380 Q155 374 175 378 Q200 374 225 378 Q245 374 270 380" />
  <!-- Cobblestones - individual stones -->
  <path d="M155 390 Q158 385 165 385 Q168 388 165 392" />
  <path d="M185 390 Q188 384 195 384 Q198 388 195 392" />
  <path d="M210 390 Q213 385 220 385 Q222 388 220 392" />
  <path d="M240 390 Q242 386 248 386 Q250 389 248 392" />
  <path d="M145 380 Q148 375 155 375 Q158 378 155 382" />
  <path d="M172 378 Q175 373 182 373 Q185 377 182 381" />
  <path d="M200 376 Q203 372 210 372 Q213 376 210 380" />
  <path d="M228 378 Q232 373 238 373 Q240 377 238 381" />
  <path d="M255 380 Q258 375 265 375 Q268 378 265 382" />
  <!-- Path extending into distance through arch -->
  <path d="M165 370 Q180 362 200 360 Q220 362 235 370" />
  <path d="M172 360 Q185 352 200 350 Q215 352 228 360" />
  <path d="M178 350 Q190 345 200 343 Q210 345 222 350" />
  <path d="M185 340 Q195 336 200 335 Q205 336 215 340" />
  <path d="M190 332 Q198 328 200 328 Q202 328 210 332" />
  <!-- Ivy climbing left pillar -->
  <path d="M78 380 Q70 365 65 345 Q60 325 62 305 Q64 285 68 270" />
  <path d="M68 270 Q65 255 68 240 Q72 225 75 215" />
  <path d="M75 215 Q72 200 75 185 Q78 172 82 162" />
  <!-- Ivy leaves - left -->
  <path d="M65 345 Q58 340 55 334 Q58 330 62 335 Q66 330 68 335" />
  <path d="M62 305 Q55 300 52 294 Q55 290 59 295 Q63 290 65 295" />
  <path d="M68 270 Q62 265 58 260 Q62 256 65 261 Q68 256 72 260" />
  <path d="M68 240 Q62 235 58 230 Q62 226 65 231 Q68 226 72 230" />
  <path d="M75 215 Q68 210 65 204 Q68 200 72 205 Q75 200 78 204" />
  <path d="M75 185 Q68 180 65 175 Q68 172 72 176 Q75 172 78 176" />
  <!-- Ivy climbing right pillar -->
  <path d="M322 375 Q330 358 335 338 Q340 318 338 298 Q336 278 332 265" />
  <path d="M332 265 Q335 248 332 232 Q328 218 325 208" />
  <path d="M325 208 Q328 192 325 178 Q322 165 318 155" />
  <!-- Ivy leaves - right -->
  <path d="M335 338 Q342 333 345 328 Q342 324 338 328 Q334 324 332 328" />
  <path d="M338 298 Q345 293 348 288 Q345 284 342 288 Q338 284 336 288" />
  <path d="M332 265 Q338 260 342 255 Q338 252 335 256 Q332 252 328 255" />
  <path d="M332 232 Q338 227 342 222 Q338 218 335 223 Q332 218 328 222" />
  <path d="M325 208 Q332 203 335 198 Q332 194 328 198 Q325 194 322 198" />
  <path d="M325 178 Q332 173 335 168 Q332 164 328 168 Q325 164 322 168" />
  <!-- Ivy tendrils -->
  <path d="M55 334 Q52 328 54 322" />
  <path d="M52 294 Q50 288 52 282" />
  <path d="M345 328 Q348 322 346 316" />
  <path d="M348 288 Q350 282 348 276" />
  <!-- Ivy crossing over arch top -->
  <path d="M82 162 Q85 145 95 130 Q110 112 130 100 Q150 88 170 78" />
  <path d="M170 78 Q180 72 190 68 Q200 65 210 68" />
  <path d="M318 155 Q315 140 308 125 Q295 108 275 98 Q258 88 240 80" />
  <path d="M240 80 Q230 75 220 72 Q210 70 210 68" />
  <!-- Arch-top ivy leaves -->
  <path d="M130 100 Q124 95 120 90 Q124 86 128 90 Q132 86 134 90" />
  <path d="M275 98 Q280 93 284 88 Q280 84 276 88 Q272 84 270 88" />
  <path d="M170 78 Q165 72 162 68 Q166 65 168 68 Q172 65 174 68" />
  <path d="M240 80 Q244 74 248 70 Q244 67 241 70 Q238 67 236 70" />
  <!-- Wall texture beyond arch -->
  <path d="M40 390 L40 350 Q40 320 50 300 Q55 285 65 275" />
  <path d="M360 390 L360 350 Q360 320 350 300 Q345 285 335 275" />
  <!-- Small stones at base of pillars -->
  <circle cx="75" cy="388" r="3" />
  <circle cx="125" cy="388" r="2.5" />
  <circle cx="275" cy="388" r="2.5" />
  <circle cx="325" cy="388" r="3" />
  <!-- Distant scenery through archway -->
  <path d="M165 320 Q180 310 195 315 Q200 312 205 315 Q220 310 235 320" />
  <path d="M175 310 Q190 302 200 300 Q210 302 225 310" />
  <!-- Distant tree through arch -->
  <path d="M200 300 L200 285" />
  <path d="M200 290 Q192 282 188 275 Q192 270 198 275 Q200 268 202 275 Q208 270 212 275 Q208 282 200 290" />
</svg>