<svg xmlns="http://www.w3.org/2000/svg" viewBox="0 0 400 400" fill="none" stroke="currentColor" stroke-width="2" stroke-linecap="round" stroke-linejoin="round">
  <!-- Floating island top surface -->
  <path d="M60 185 Q100 175 140 178 Q180 172 200 170 Q240 168 280 175 Q320 180 340 185" />
  <!-- Island mass - left side rock face -->
  <path d="M60 185 Q55 200 58 220 Q52 240 60 260 Q55 275 65 290 Q60 310 80 330 Q100 345 130 355 Q150 358 170 360" />
  <!-- Island mass - right side rock face -->
  <path d="M340 185 Q345 200 342 218 Q348 238 340 258 Q345 272 335 288 Q340 308 320 328 Q300 342 270 352 Q250 358 230 360" />
  <!-- Island bottom curve -->
  <path d="M170 360 Q190 365 200 368 Q210 365 230 360" />
  <!-- Rock strata layer 1 -->
  <path d="M65 210 Q100 205 150 208 Q200 203 250 207 Q300 204 338 212" />
  <!-- Rock strata layer 2 -->
  <path d="M60 240 Q110 233 160 237 Q210 232 260 236 Q310 233 342 240" />
  <!-- Rock strata layer 3 -->
  <path d="M63 268 Q110 260 160 264 Q200 258 240 262 Q290 260 338 268" />
  <!-- Rock strata layer 4 -->
  <path d="M70 295 Q120 288 170 291 Q210 286 250 290 Q300 288 330 295" />
  <!-- Rock strata layer 5 -->
  <path d="M85 320 Q130 313 180 316 Q220 312 260 315 Q300 314 315 320" />
  <!-- Rock texture cracks -->
  <path d="M100 210 Q105 225 98 240" />
  <path d="M160 208 Q155 220 162 237" />
  <path d="M230 205 Q235 218 228 235" />
  <path d="M290 207 Q285 222 292 238" />
  <path d="M120 240 Q125 255 118 268" />
  <path d="M200 235 Q195 248 202 262" />
  <path d="M270 238 Q275 252 268 265" />
  <path d="M140 268 Q145 280 138 293" />
  <path d="M240 265 Q235 278 242 292" />
  <!-- Small crystal formations in rock -->
  <path d="M90 250 L85 240 L92 238 L97 248" />
  <path d="M300 260 L296 250 L303 247 L307 257" />
  <path d="M180 290 L176 280 L183 278 L187 288" />
  <!-- Hanging roots from bottom -->
  <path d="M140 350 Q135 365 130 380 Q128 388 132 395" />
  <path d="M160 358 Q155 370 158 385 Q156 392 160 398" />
  <path d="M180 362 Q175 375 178 390" />
  <path d="M200 368 Q195 380 200 395" />
  <path d="M220 364 Q225 378 222 392" />
  <path d="M240 358 Q245 372 242 388 Q244 394 240 400" />
  <path d="M260 352 Q265 368 260 382 Q262 390 258 398" />
  <!-- Root branching details -->
  <path d="M130 380 Q125 385 118 388" />
  <path d="M130 380 Q135 387 138 392" />
  <path d="M158 385 Q152 390 148 394" />
  <path d="M200 395 Q194 398 190 400" />
  <path d="M260 382 Q255 388 250 392" />
  <!-- Main tree trunk on island -->
  <path d="M195 170 Q193 155 190 140 Q188 125 192 110" />
  <path d="M205 170 Q207 155 210 140 Q212 125 208 110" />
  <!-- Tree trunk texture -->
  <path d="M196 160 Q200 158 204 160" />
  <path d="M194 148 Q199 146 206 148" />
  <path d="M192 135 Q198 132 208 135" />
  <!-- Main tree branches -->
  <path d="M192 110 Q170 90 148 75 Q135 68 125 72" />
  <path d="M208 110 Q230 90 252 75 Q265 68 275 72" />
  <path d="M192 110 Q180 95 165 88 Q155 85 148 90" />
  <path d="M208 110 Q220 95 235 88 Q245 85 252 90" />
  <path d="M200 108 Q198 90 195 75 Q192 62 195 52" />
  <path d="M200 108 Q202 90 205 75 Q208 62 205 52" />
  <!-- Tree canopy - layered organic shapes -->
  <path d="M125 72 Q115 60 110 48 Q108 35 120 28 Q135 22 150 30 Q160 25 170 28" />
  <path d="M275 72 Q285 60 290 48 Q292 35 280 28 Q265 22 250 30 Q240 25 230 28" />
  <path d="M170 28 Q185 20 200 18 Q215 20 230 28" />
  <path d="M148 90 Q135 80 128 68 Q125 58 132 50" />
  <path d="M252 90 Q265 80 272 68 Q275 58 268 50" />
  <path d="M195 52 Q190 42 185 35 Q182 28 188 22 Q195 18 200 18" />
  <path d="M205 52 Q210 42 215 35 Q218 28 212 22 Q205 18 200 18" />
  <!-- Canopy leaf texture details -->
  <path d="M120 45 Q125 40 130 42" />
  <path d="M140 32 Q145 27 150 30" />
  <path d="M260 45 Q265 40 270 42" />
  <path d="M250 32 Q255 27 260 30" />
  <path d="M188 30 Q193 25 198 28" />
  <path d="M202 28 Q207 25 212 30" />
  <!-- Small tree on left side of island -->
  <path d="M110 178 Q108 168 106 160 Q105 152 108 145" />
  <path d="M108 145 Q100 135 96 128 Q94 120 100 116 Q108 112 115 118 Q118 112 122 115" />
  <path d="M108 145 Q115 138 120 132 Q124 125 120 120" />
  <!-- Small bush on right side -->
  <path d="M290 175 Q285 168 280 164 Q276 158 280 152 Q286 148 292 155 Q296 148 300 152 Q304 158 300 164 Q296 168 294 175" />
  <!-- Small vegetation details on surface -->
  <path d="M140 178 Q138 172 136 168 Q138 165 140 168 Q142 165 144 168 Q142 172 140 178" />
  <path d="M170 174 Q168 168 170 164 Q172 168 174 164 Q172 168 170 174" />
  <path d="M230 172 Q228 166 230 162 Q232 166 234 162 Q232 166 230 172" />
  <path d="M260 176 Q258 170 256 166 Q258 163 260 166 Q262 163 264 166 Q262 170 260 176" />
  <!-- Grass tufts on surface -->
  <path d="M80 182 Q78 176 76 170" />
  <path d="M80 182 Q80 175 82 170" />
  <path d="M80 182 Q83 176 86 172" />
  <path d="M310 180 Q308 174 306 168" />
  <path d="M310 180 Q310 173 312 168" />
  <path d="M310 180 Q313 174 316 170" />
  <!-- Cloud wisps left -->
  <path d="M15 140 Q30 135 45 138 Q60 134 75 140" />
  <path d="M20 148 Q35 145 50 147" />
  <!-- Cloud wisps right -->
  <path d="M320 130 Q335 125 350 128 Q365 124 380 130" />
  <path d="M330 138 Q345 135 360 137" />
  <!-- Small cloud below island left -->
  <path d="M30 250 Q45 244 60 248 Q72 243 85 250" />
  <!-- Small cloud below island right -->
  <path d="M310 270 Q325 264 340 268 Q355 263 370 270" />
  <!-- Tiny floating debris/particles -->
  <circle cx="120" cy="375" r="1.5" />
  <circle cx="175" cy="388" r="1" />
  <circle cx="225" cy="385" r="1.5" />
  <circle cx="280" cy="375" r="1" />
  <circle cx="155" cy="395" r="1" />
  <circle cx="245" cy="395" r="1" />
  <!-- Small stones on island surface -->
  <circle cx="155" cy="176" r="3" />
  <circle cx="245" cy="174" r="2.5" />
  <circle cx="100" cy="180" r="2" />
</svg>