<svg xmlns="http://www.w3.org/2000/svg" viewBox="0 0 400 400" fill="none" stroke="currentColor" stroke-width="2" stroke-linecap="round" stroke-linejoin="round">
  <!-- Basket body - woven texture -->
  <path d="M100 220 Q95 250 92 280 Q90 310 95 340 Q100 360 120 370 Q160 380 200 382 Q240 380 280 370 Q300 360 305 340 Q308 310 308 280 Q305 250 300 220" />
  <!-- Basket rim -->
  <path d="M100 220 Q130 212 160 215 Q180 210 200 212 Q220 210 240 215 Q270 212 300 220" />
  <path d="M95 228 Q130 220 160 223 Q180 218 200 220 Q220 218 240 223 Q270 220 305 228" />
  <!-- Basket weave horizontal lines -->
  <path d="M96 250 Q150 244 200 246 Q250 244 304 250" />
  <path d="M93 275 Q148 268 200 270 Q252 268 307 275" />
  <path d="M92 300 Q148 293 200 295 Q252 293 308 300" />
  <path d="M94 325 Q150 318 200 320 Q250 318 306 325" />
  <path d="M98 348 Q150 342 200 344 Q250 342 302 348" />
  <!-- Basket weave vertical lines -->
  <path d="M130 220 Q128 270 130 320 Q132 350 135 370" />
  <path d="M160 215 Q157 265 160 315 Q162 350 165 375" />
  <path d="M200 212 Q198 262 200 312 Q200 350 200 382" />
  <path d="M240 215 Q243 265 240 315 Q238 350 235 375" />
  <path d="M270 220 Q272 270 270 320 Q268 350 265 370" />
  <!-- Basket handle -->
  <path d="M150 220 Q145 180 160 155 Q180 135 200 130 Q220 135 240 155 Q255 180 250 220" />
  <path d="M155 218 Q150 182 163 160 Q182 142 200 138 Q218 142 237 160 Q250 182 245 218" />
  <!-- Handle wrapped detail -->
  <path d="M157 195 Q160 192 163 195" />
  <path d="M152 180 Q155 177 158 180" />
  <path d="M155 165 Q158 162 162 165" />
  <path d="M243 195 Q240 192 237 195" />
  <path d="M248 180 Q245 177 242 180" />
  <path d="M245 165 Q242 162 238 165" />
  <!-- Large pumpkin spilling out left -->
  <path d="M80 210 Q65 195 60 180 Q58 168 65 160 Q75 155 85 160 Q92 168 90 180 Q88 195 85 210" />
  <path d="M75 160 Q75 170 75 185" />
  <path d="M82 158 Q82 168 82 183" />
  <!-- Pumpkin stem -->
  <path d="M72 160 Q70 152 72 148 Q75 145 78 148" />
  <!-- Apple right side -->
  <path d="M300 205 Q310 192 318 182 Q325 175 330 178 Q334 185 328 195 Q322 205 312 212" />
  <path d="M318 175 Q320 170 318 166" />
  <path d="M320 170 Q324 168 326 172" />
  <!-- Pear spilling right -->
  <path d="M310 215 Q320 208 328 198 Q332 188 328 182 Q322 180 318 188 Q316 200 315 210" />
  <!-- Wheat stalks coming out of basket - left group -->
  <path d="M130 215 Q125 180 115 140 Q108 110 100 80 Q95 60 92 40" />
  <path d="M140 212 Q132 175 125 135 Q120 105 118 75 Q116 55 115 35" />
  <path d="M148 215 Q142 178 138 140 Q135 110 136 80 Q137 55 138 32" />
  <!-- Wheat heads left group -->
  <path d="M92 40 Q86 45 80 42 Q84 36 92 40" />
  <path d="M92 40 Q98 45 104 42 Q100 36 92 40" />
  <path d="M95 50 Q89 55 83 52 Q87 46 95 50" />
  <path d="M95 50 Q101 55 107 52 Q103 46 95 50" />
  <path d="M98 60 Q92 65 86 62 Q90 56 98 60" />
  <path d="M115 35 Q109 40 103 37 Q107 31 115 35" />
  <path d="M115 35 Q121 40 127 37 Q123 31 115 35" />
  <path d="M117 45 Q111 50 105 47 Q109 41 117 45" />
  <path d="M117 45 Q123 50 129 47 Q125 41 117 45" />
  <path d="M138 32 Q132 37 126 34 Q130 28 138 32" />
  <path d="M138 32 Q144 37 150 34 Q146 28 138 32" />
  <path d="M140 42 Q134 47 128 44 Q132 38 140 42" />
  <path d="M140 42 Q146 47 152 44 Q148 38 140 42" />
  <!-- Wheat stalks - right group -->
  <path d="M255 212 Q260 175 268 135 Q275 100 280 70 Q283 50 285 30" />
  <path d="M265 215 Q272 178 278 140 Q282 110 284 80 Q285 58 286 38" />
  <!-- Wheat heads right group -->
  <path d="M285 30 Q279 35 273 32 Q277 26 285 30" />
  <path d="M285 30 Q291 35 297 32 Q293 26 285 30" />
  <path d="M286 40 Q280 45 274 42 Q278 36 286 40" />
  <path d="M286 40 Q292 45 298 42 Q294 36 286 40" />
  <path d="M286 50 Q280 55 274 52 Q278 46 286 50" />
  <!-- Grape cluster spilling over front -->
  <circle cx="185" cy="218" r="6" />
  <circle cx="195" cy="222" r="6" />
  <circle cx="205" cy="218" r="6" />
  <circle cx="178" cy="228" r="6" />
  <circle cx="190" cy="232" r="6" />
  <circle cx="202" cy="232" r="6" />
  <circle cx="212" cy="228" r="6" />
  <circle cx="184" cy="242" r="5" />
  <circle cx="196" cy="244" r="5" />
  <circle cx="208" cy="242" r="5" />
  <circle cx="190" cy="252" r="4" />
  <circle cx="202" cy="252" r="4" />
  <circle cx="196" cy="260" r="3" />
  <!-- Grape vine -->
  <path d="M195 212 Q193 205 190 200 Q188 195 192 190" />
  <!-- Grape leaf -->
  <path d="M192 190 Q182 185 178 178 Q175 172 180 168 Q186 165 192 170 Q195 165 200 168 Q205 172 202 178 Q198 185 192 190" />
  <path d="M185 180 Q188 176 192 180" />
  <!-- Leaves spilling out -->
  <path d="M108 215 Q95 208 88 198 Q84 190 90 185 Q98 182 104 188 Q108 195 106 205" />
  <path d="M280 218 Q292 210 300 200 Q305 192 300 186 Q292 183 286 190 Q282 198 284 208" />
  <!-- Small berries scattered -->
  <circle cx="110" cy="210" r="3" />
  <circle cx="118" cy="205" r="3" />
  <circle cx="290" cy="212" r="3" />
  <circle cx="298" cy="208" r="3" />
  <!-- Sunflower peeking out -->
  <path d="M220 200 Q222 185 225 170 Q228 155 230 145" />
  <circle cx="230" cy="138" r="8" />
  <path d="M222 135 Q218 130 216 125" />
  <path d="M225 132 Q223 126 222 120" />
  <path d="M230 130 Q230 124 230 118" />
  <path d="M235 132 Q237 126 238 120" />
  <path d="M238 135 Q242 130 244 125" />
  <path d="M238 140 Q244 138 248 135" />
  <path d="M222 140 Q216 138 212 135" />
  <path d="M225 145 Q222 150 218 152" />
  <path d="M235 145 Q238 150 242 152" />
  <!-- Ground line with fallen items -->
  <path d="M40 382 Q80 378 140 380 Q200 382 260 380 Q320 378 360 382" />
  <!-- Fallen apple on ground -->
  <path d="M55 380 Q50 372 48 365 Q48 358 55 355 Q62 358 62 365 Q60 372 58 378" />
  <path d="M55 355 Q56 350 54 348" />
  <!-- Small scattered seeds on ground -->
  <circle cx="340" cy="378" r="1.5" />
  <circle cx="345" cy="380" r="1" />
  <circle cx="350" cy="377" r="1.5" />
  <circle cx="70" cy="380" r="1" />
  <circle cx="75" cy="378" r="1.5" />
</svg>