<svg xmlns="http://www.w3.org/2000/svg" viewBox="0 0 400 400" fill="none" stroke="currentColor" stroke-width="2" stroke-linecap="round" stroke-linejoin="round">
  <!-- Left hand - outer curve -->
  <path d="M60 340 Q48 310 42 280 Q38 255 42 230 Q48 208 60 192 Q75 175 95 165 Q115 158 132 155 Q148 154 160 158 Q172 162 180 170" />
  <!-- Left hand - inner curve -->
  <path d="M80 340 Q72 315 68 290 Q65 268 68 248 Q72 228 82 212 Q95 198 110 188 Q125 180 140 176 Q155 174 165 178" />
  <!-- Left fingers -->
  <path d="M60 192 Q52 186 48 178 Q45 170 50 164 Q56 160 62 165 Q66 172 65 180" />
  <path d="M75 175 Q68 168 65 160 Q64 152 70 148 Q76 146 80 152 Q82 160 80 168" />
  <path d="M95 165 Q90 156 88 148 Q88 140 94 137 Q100 136 103 142 Q104 150 102 158" />
  <path d="M115 158 Q112 148 112 140 Q114 132 120 130 Q126 130 128 136 Q128 144 126 152" />
  <!-- Left thumb -->
  <path d="M60 340 Q55 345 52 352 Q50 360 55 365 Q62 368 68 364 Q75 358 80 350 Q82 345 80 340" />
  <!-- Right hand - outer curve -->
  <path d="M340 340 Q352 310 358 280 Q362 255 358 230 Q352 208 340 192 Q325 175 305 165 Q285 158 268 155 Q252 154 240 158 Q228 162 220 170" />
  <!-- Right hand - inner curve -->
  <path d="M320 340 Q328 315 332 290 Q335 268 332 248 Q328 228 318 212 Q305 198 290 188 Q275 180 260 176 Q245 174 235 178" />
  <!-- Right fingers -->
  <path d="M340 192 Q348 186 352 178 Q355 170 350 164 Q344 160 338 165 Q334 172 335 180" />
  <path d="M325 175 Q332 168 335 160 Q336 152 330 148 Q324 146 320 152 Q318 160 320 168" />
  <path d="M305 165 Q310 156 312 148 Q312 140 306 137 Q300 136 297 142 Q296 150 298 158" />
  <path d="M285 158 Q288 148 288 140 Q286 132 280 130 Q274 130 272 136 Q272 144 274 152" />
  <!-- Right thumb -->
  <path d="M340 340 Q345 345 348 352 Q350 360 345 365 Q338 368 332 364 Q325 358 320 350 Q318 345 320 340" />
  <!-- Soil mound in hands -->
  <path d="M110 210 Q135 195 160 190 Q180 186 200 185 Q220 186 240 190 Q265 195 290 210" />
  <!-- Soil texture - bottom curve -->
  <path d="M100 240 Q140 228 180 225 Q200 224 220 225 Q260 228 300 240" />
  <!-- Soil layer lines -->
  <path d="M108 225 Q140 215 175 212 Q200 210 225 212 Q260 215 292 225" />
  <path d="M95 255 Q135 242 175 238 Q200 236 225 238 Q265 242 305 255" />
  <!-- Soil grain texture dots -->
  <circle cx="140" cy="205" r="1.5" />
  <circle cx="165" cy="200" r="1" />
  <circle cx="190" cy="198" r="1.5" />
  <circle cx="210" cy="200" r="1" />
  <circle cx="235" cy="202" r="1.5" />
  <circle cx="260" cy="206" r="1" />
  <circle cx="125" cy="218" r="1" />
  <circle cx="155" cy="215" r="1.5" />
  <circle cx="200" cy="212" r="1" />
  <circle cx="245" cy="215" r="1.5" />
  <circle cx="275" cy="218" r="1" />
  <circle cx="130" cy="235" r="1" />
  <circle cx="160" cy="230" r="1.5" />
  <circle cx="200" cy="228" r="1" />
  <circle cx="240" cy="230" r="1.5" />
  <circle cx="270" cy="235" r="1" />
  <!-- Seedling stem -->
  <path d="M198 185 Q196 168 194 150 Q192 132 195 115 Q198 100 200 90" />
  <path d="M202 185 Q204 170 205 155 Q206 138 204 122 Q202 108 200 98" />
  <!-- Seedling leaves - first pair (larger) -->
  <path d="M195 130 Q178 118 165 108 Q155 102 152 108 Q150 115 158 122 Q168 128 182 132 Q190 134 195 132" />
  <path d="M205 130 Q222 118 235 108 Q245 102 248 108 Q250 115 242 122 Q232 128 218 132 Q210 134 205 132" />
  <!-- Leaf vein details - left leaf -->
  <path d="M195 130 Q180 120 168 114" />
  <path d="M188 128 Q178 122 170 118" />
  <path d="M182 126 Q175 122 168 120" />
  <!-- Leaf vein details - right leaf -->
  <path d="M205 130 Q220 120 232 114" />
  <path d="M212 128 Q222 122 230 118" />
  <path d="M218 126 Q225 122 232 120" />
  <!-- Second pair of leaves (smaller, higher) -->
  <path d="M198 105 Q185 96 175 90 Q170 88 170 92 Q172 98 180 102 Q188 106 196 106" />
  <path d="M202 105 Q215 96 225 90 Q230 88 230 92 Q228 98 220 102 Q212 106 204 106" />
  <!-- Unfurling top leaf -->
  <path d="M200 90 Q196 82 194 75 Q193 68 198 65 Q202 63 205 68 Q206 75 204 82 Q202 86 200 90" />
  <!-- Roots visible through soil -->
  <path d="M198 185 Q192 195 185 210 Q178 225 172 242 Q168 255 165 268" />
  <path d="M202 185 Q208 195 215 210 Q222 225 228 242 Q232 255 235 268" />
  <path d="M200 185 Q200 200 200 218 Q200 235 200 255 Q200 270 200 285" />
  <!-- Root branches -->
  <path d="M185 210 Q178 215 172 222 Q168 228 165 238" />
  <path d="M215 210 Q222 215 228 222 Q232 228 235 238" />
  <path d="M172 242 Q165 248 158 258" />
  <path d="M228 242 Q235 248 242 258" />
  <path d="M200 235 Q192 242 186 252" />
  <path d="M200 235 Q208 242 214 252" />
  <!-- Fine root hairs -->
  <path d="M165 268 Q160 272 156 278" />
  <path d="M165 268 Q168 275 170 280" />
  <path d="M235 268 Q240 272 244 278" />
  <path d="M235 268 Q232 275 230 280" />
  <path d="M200 285 Q195 290 192 296" />
  <path d="M200 285 Q205 290 208 296" />
  <path d="M158 258 Q155 263 152 270" />
  <path d="M242 258 Q245 263 248 270" />
  <!-- Earthworms in soil -->
  <path d="M140 240 Q148 235 155 240 Q162 245 168 240" />
  <path d="M232 245 Q240 240 248 245 Q255 250 262 245" />
  <!-- Small earthworm -->
  <path d="M185 260 Q190 256 195 260 Q200 264 205 260" />
  <!-- Water droplets falling from above -->
  <path d="M155 50 Q153 56 155 62 Q157 56 155 50" />
  <path d="M200 35 Q198 42 200 48 Q202 42 200 35" />
  <path d="M245 45 Q243 52 245 58 Q247 52 245 45" />
  <path d="M175 65 Q173 72 175 78 Q177 72 175 65" />
  <path d="M225 60 Q223 67 225 73 Q227 67 225 60" />
  <!-- Splashing droplet on leaf -->
  <circle cx="170" cy="110" r="1.5" />
  <circle cx="168" cy="106" r="1" />
  <circle cx="173" cy="107" r="1" />
  <!-- Water droplets on hands -->
  <path d="M78 260 Q76 265 78 270 Q80 265 78 260" />
  <path d="M322 255 Q320 260 322 265 Q324 260 322 255" />
  <path d="M90 300 Q88 305 90 310 Q92 305 90 300" />
  <path d="M310 295 Q308 300 310 305 Q312 300 310 295" />
  <!-- Small pebbles in soil -->
  <path d="M145 225 Q148 222 152 224 Q150 228 146 228" />
  <path d="M248 228 Q252 225 255 227 Q253 231 249 231" />
  <!-- Palm lines on left hand -->
  <path d="M82 280 Q90 272 100 268" />
  <path d="M75 300 Q85 290 98 285" />
  <!-- Palm lines on right hand -->
  <path d="M318 280 Q310 272 300 268" />
  <path d="M325 300 Q315 290 302 285" />
  <!-- Wrist lines -->
  <path d="M65 335 Q70 332 78 334" />
  <path d="M335 335 Q330 332 322 334" />
</svg>