<svg xmlns="http://www.w3.org/2000/svg" viewBox="0 0 400 400" fill="none" stroke="currentColor" stroke-width="2" stroke-linecap="round" stroke-linejoin="round">
  <!-- Ancient tree trunk - left side -->
  <path d="M175 195 Q170 175 168 155 Q165 130 168 110 Q170 90 175 75 Q178 60 180 50" />
  <!-- Ancient tree trunk - right side -->
  <path d="M225 195 Q230 175 232 155 Q235 130 232 110 Q230 90 225 75 Q222 60 220 50" />
  <!-- Trunk bark texture lines -->
  <path d="M180 180 Q195 175 215 178" />
  <path d="M178 160 Q192 155 220 158" />
  <path d="M172 140 Q190 136 228 140" />
  <path d="M170 120 Q188 115 230 120" />
  <path d="M172 100 Q192 96 228 100" />
  <path d="M176 82 Q195 78 224 82" />
  <!-- Trunk knot/burl detail -->
  <path d="M190 150 Q195 142 205 142 Q210 145 210 150 Q208 156 200 158 Q192 156 190 150" />
  <circle cx="200" cy="150" r="3" />
  <!-- Major branches left -->
  <path d="M180 50 Q160 35 138 25 Q120 18 105 22 Q92 28 88 40" />
  <path d="M175 60 Q155 48 132 42 Q115 38 102 45 Q95 52 95 62" />
  <path d="M172 75 Q148 62 125 58 Q108 56 100 65 Q96 72 100 82" />
  <!-- Major branches right -->
  <path d="M220 50 Q240 35 262 25 Q280 18 295 22 Q308 28 312 40" />
  <path d="M225 60 Q245 48 268 42 Q285 38 298 45 Q305 52 305 62" />
  <path d="M228 75 Q252 62 275 58 Q292 56 300 65 Q304 72 300 82" />
  <!-- Central upward branch -->
  <path d="M195 50 Q193 38 190 28 Q188 18 192 10" />
  <path d="M205 50 Q207 38 210 28 Q212 18 208 10" />
  <!-- Canopy clusters left -->
  <path d="M88 40 Q78 32 72 22 Q68 12 78 8 Q90 5 100 12 Q108 6 115 10 Q122 16 118 25" />
  <path d="M95 62 Q82 55 74 45 Q70 38 78 32" />
  <path d="M100 82 Q85 78 76 68 Q70 60 75 52" />
  <!-- Canopy clusters right -->
  <path d="M312 40 Q322 32 328 22 Q332 12 322 8 Q310 5 300 12 Q292 6 285 10 Q278 16 282 25" />
  <path d="M305 62 Q318 55 326 45 Q330 38 322 32" />
  <path d="M300 82 Q315 78 324 68 Q330 60 325 52" />
  <!-- Central canopy -->
  <path d="M192 10 Q188 4 195 2 Q200 0 205 2 Q212 4 208 10" />
  <!-- Small leaf clusters throughout canopy -->
  <path d="M82 15 Q85 10 90 12" />
  <path d="M108 8 Q112 4 116 8" />
  <path d="M318 15 Q315 10 310 12" />
  <path d="M292 8 Q288 4 284 8" />
  <path d="M130 35 Q135 30 140 33" />
  <path d="M260 35 Q265 30 270 33" />
  <!-- Ground line -->
  <path d="M20 195 Q60 190 100 193 Q140 188 180 192 Q200 190 220 192 Q260 188 300 193 Q340 190 380 195" />
  <!-- Major root system - left side -->
  <path d="M175 195 Q155 205 130 220 Q105 240 85 265 Q70 285 62 310 Q58 330 60 355" />
  <path d="M175 195 Q160 210 145 230 Q125 255 115 280 Q108 300 110 325 Q112 345 115 365" />
  <path d="M180 195 Q170 215 162 240 Q155 265 152 290 Q150 310 155 340" />
  <!-- Major root system - right side -->
  <path d="M225 195 Q245 205 270 220 Q295 240 315 265 Q330 285 338 310 Q342 330 340 355" />
  <path d="M225 195 Q240 210 255 230 Q275 255 285 280 Q292 300 290 325 Q288 345 285 365" />
  <path d="M220 195 Q230 215 238 240 Q245 265 248 290 Q250 310 245 340" />
  <!-- Central roots going down -->
  <path d="M190 195 Q188 215 185 240 Q182 265 185 290 Q188 315 190 345" />
  <path d="M210 195 Q212 215 215 240 Q218 265 215 290 Q212 315 210 345" />
  <path d="M200 195 Q200 220 200 250 Q200 280 200 310 Q200 340 200 370" />
  <!-- Root branching details -->
  <path d="M62 310 Q50 320 42 335 Q38 345 40 355" />
  <path d="M85 265 Q72 275 65 288" />
  <path d="M115 280 Q100 290 92 305" />
  <path d="M338 310 Q350 320 358 335 Q362 345 360 355" />
  <path d="M315 265 Q328 275 335 288" />
  <path d="M285 280 Q300 290 308 305" />
  <!-- Fine root hairs -->
  <path d="M60 355 Q55 360 50 362" />
  <path d="M60 355 Q62 362 58 368" />
  <path d="M115 365 Q110 370 106 372" />
  <path d="M115 365 Q118 372 115 378" />
  <path d="M155 340 Q150 348 146 352" />
  <path d="M340 355 Q345 360 350 362" />
  <path d="M340 355 Q338 362 342 368" />
  <path d="M285 365 Q290 370 294 372" />
  <path d="M245 340 Q250 348 254 352" />
  <path d="M190 345 Q185 352 182 358" />
  <path d="M210 345 Q215 352 218 358" />
  <path d="M200 370 Q195 378 192 385" />
  <path d="M200 370 Q205 378 208 385" />
  <!-- Soil layer lines -->
  <path d="M30 230 Q80 225 130 228 Q180 222 230 225 Q280 222 330 228 Q360 225 380 230" />
  <path d="M25 270 Q75 264 125 268 Q175 262 225 265 Q275 262 325 268 Q365 264 385 270" />
  <path d="M20 310 Q70 304 120 308 Q170 302 220 305 Q270 302 320 308 Q370 304 390 310" />
  <path d="M20 350 Q70 344 120 348 Q170 342 220 345 Q270 342 320 348 Q370 344 390 350" />
  <!-- Soil texture dots and pebbles -->
  <circle cx="50" cy="245" r="2" />
  <circle cx="90" cy="250" r="1.5" />
  <circle cx="310" cy="248" r="2" />
  <circle cx="350" cy="242" r="1.5" />
  <circle cx="45" cy="290" r="2.5" />
  <circle cx="355" cy="285" r="2" />
  <circle cx="75" cy="335" r="1.5" />
  <circle cx="325" cy="340" r="2" />
  <circle cx="170" cy="360" r="1.5" />
  <circle cx="230" cy="358" r="1.5" />
  <!-- Mushrooms at base of tree - left cluster -->
  <path d="M130 192 Q128 186 125 182 Q120 178 115 180 Q110 182 112 188 Q114 192 120 194" />
  <path d="M130 192 L130 195" />
  <path d="M120 194 L120 197" />
  <path d="M140 190 Q138 184 140 180 Q142 176 146 178 Q149 182 148 186 Q146 190 142 192" />
  <path d="M142 192 L142 195" />
  <!-- Mushrooms at base - right cluster -->
  <path d="M262 190 Q260 184 262 180 Q265 176 270 178 Q274 182 272 187 Q270 190 266 192" />
  <path d="M266 192 L266 196" />
  <path d="M275 188 Q273 182 275 178 Q278 175 282 177 Q285 180 284 185 Q282 188 278 190" />
  <path d="M278 190 L278 194" />
  <!-- Small mushroom gills -->
  <path d="M116 188 Q118 186 120 188" />
  <path d="M264 185 Q266 183 268 185" />
  <!-- Earthworm in soil -->
  <path d="M140 305 Q148 300 155 305 Q162 310 168 305" />
  <!-- Small rocks in soil -->
  <path d="M40 255 Q45 250 50 252 Q48 258 42 258" />
  <path d="M340 295 Q345 290 350 292 Q348 298 342 298" />
</svg>