<svg xmlns="http://www.w3.org/2000/svg" viewBox="0 0 400 400" fill="none" stroke="currentColor" stroke-width="2" stroke-linecap="round" stroke-linejoin="round">
  <!-- Bamboo fence background - vertical poles -->
  <path d="M30 30 L30 160" />
  <path d="M55 25 L55 155" />
  <path d="M80 22 L80 150" />
  <path d="M105 20 L105 148" />
  <path d="M130 20 L130 150" />
  <path d="M155 22 L155 155" />
  <path d="M180 25 L180 158" />
  <path d="M205 28 L205 160" />
  <path d="M230 30 L230 160" />
  <path d="M255 28 L255 155" />
  <path d="M280 25 L280 150" />
  <path d="M305 22 L305 148" />
  <path d="M330 20 L330 150" />
  <path d="M355 22 L355 155" />
  <path d="M380 28 L380 162" />
  <!-- Bamboo node marks -->
  <path d="M28 60 L32 60" />
  <path d="M28 100 L32 100" />
  <path d="M53 55 L57 55" />
  <path d="M53 95 L57 95" />
  <path d="M78 50 L82 50" />
  <path d="M78 90 L82 90" />
  <path d="M103 48 L107 48" />
  <path d="M103 88 L107 88" />
  <path d="M128 50 L132 50" />
  <path d="M128 90 L132 90" />
  <path d="M153 52 L157 52" />
  <path d="M178 55 L182 55" />
  <path d="M203 58 L207 58" />
  <path d="M228 60 L232 60" />
  <path d="M253 58 L257 58" />
  <path d="M278 55 L282 55" />
  <path d="M303 50 L307 50" />
  <path d="M328 48 L332 48" />
  <path d="M353 52 L357 52" />
  <path d="M378 58 L382 58" />
  <!-- Bamboo horizontal tie bars -->
  <path d="M25 70 Q100 65 200 68 Q300 65 385 72" />
  <path d="M25 130 Q100 125 200 128 Q300 125 385 132" />
  <!-- Garden border/edge line -->
  <path d="M15 170 Q100 162 200 165 Q300 162 385 170" />
  <!-- Raked sand concentric circles - around left stone group -->
  <path d="M85 280 Q75 270 75 260 Q75 250 85 240 Q95 232 110 232 Q125 232 135 240 Q145 250 145 260 Q145 270 135 280 Q125 288 110 288 Q95 288 85 280" />
  <path d="M72 292 Q58 278 58 260 Q58 242 72 228 Q86 216 110 216 Q134 216 148 228 Q162 242 162 260 Q162 278 148 292 Q134 304 110 304 Q86 304 72 292" />
  <path d="M60 305 Q42 288 42 260 Q42 232 60 215 Q78 200 110 200 Q142 200 160 215 Q178 232 178 260 Q178 288 160 305 Q142 320 110 320 Q78 320 60 305" />
  <!-- Stones in left group -->
  <path d="M95 268 Q98 258 105 254 Q112 252 118 256 Q122 262 120 270 Q116 276 108 278 Q100 276 95 268" />
  <path d="M108 258 Q112 248 120 245 Q126 246 128 252 Q128 258 124 262" />
  <!-- Raked sand concentric circles - around right stone -->
  <path d="M268 310 Q260 302 260 292 Q260 282 268 274 Q276 268 288 268 Q300 268 308 274 Q316 282 316 292 Q316 302 308 310 Q300 316 288 316 Q276 316 268 310" />
  <path d="M256 322 Q244 310 244 292 Q244 274 256 262 Q268 252 288 252 Q308 252 320 262 Q332 274 332 292 Q332 310 320 322 Q308 332 288 332 Q268 332 256 322" />
  <path d="M244 334 Q228 318 228 292 Q228 266 244 250 Q260 236 288 236 Q316 236 332 250 Q348 266 348 292 Q348 318 332 334 Q316 348 288 348 Q260 348 244 334" />
  <!-- Right stone -->
  <path d="M278 298 Q280 288 286 284 Q292 282 298 286 Q302 292 300 300 Q296 306 290 308 Q282 306 278 298" />
  <!-- Horizontal raked sand lines throughout garden -->
  <path d="M15 190 Q100 184 200 186 Q300 184 385 190" />
  <path d="M15 210 Q50 205 80 208" />
  <path d="M178 210 Q230 205 260 208" />
  <path d="M348 210 Q365 205 385 210" />
  <path d="M15 230 Q40 225 58 228" />
  <path d="M178 232 Q210 226 228 230" />
  <path d="M348 232 Q365 228 385 232" />
  <path d="M15 260 Q35 255 42 258" />
  <path d="M178 260 Q200 255 228 258" />
  <path d="M348 260 Q365 255 385 260" />
  <path d="M15 290 Q35 285 42 288" />
  <path d="M178 292 Q200 287 228 290" />
  <path d="M348 292 Q365 288 385 292" />
  <path d="M15 320 Q40 315 60 318" />
  <path d="M178 318 Q210 313 244 316" />
  <path d="M348 318 Q365 314 385 320" />
  <path d="M15 345 Q80 340 160 342 Q200 338 244 340" />
  <path d="M348 345 Q365 340 385 345" />
  <path d="M15 365 Q100 358 200 360 Q300 358 385 365" />
  <path d="M15 385 Q100 378 200 380 Q300 378 385 385" />
  <!-- Bonsai tree - pot -->
  <path d="M175 175 Q190 172 205 172 Q220 172 235 175" />
  <path d="M175 175 L178 185 Q195 188 205 188 Q215 188 232 185 L235 175" />
  <path d="M180 188 L180 190" />
  <path d="M230 188 L230 190" />
  <!-- Bonsai trunk -->
  <path d="M202 172 Q200 162 198 152 Q195 140 192 130" />
  <path d="M210 172 Q208 162 206 152 Q204 142 202 135" />
  <!-- Bonsai branches -->
  <path d="M195 145 Q182 138 170 135 Q162 134 158 138" />
  <path d="M204 138 Q215 130 228 128 Q236 128 240 132" />
  <path d="M192 130 Q185 125 178 122 Q172 122 170 126" />
  <path d="M202 135 Q210 128 220 125 Q228 125 230 128" />
  <!-- Bonsai canopy clusters -->
  <path d="M158 138 Q150 132 148 125 Q148 118 155 115 Q162 112 168 118 Q172 112 178 115 Q182 120 178 128 Q175 135 170 138" />
  <path d="M240 132 Q248 126 250 118 Q250 112 244 108 Q238 106 232 112 Q228 106 222 108 Q218 114 222 122 Q225 128 230 132" />
  <path d="M170 126 Q164 120 162 112 Q162 106 168 104 Q174 102 178 108 Q182 104 186 108" />
  <path d="M230 128 Q236 122 238 114 Q238 108 232 105 Q226 103 222 108 Q218 104 214 108" />
  <!-- Bonsai top -->
  <path d="M186 108 Q188 100 195 95 Q200 92 205 95 Q212 100 214 108" />
  <path d="M195 95 Q198 88 200 85 Q202 88 205 95" />
  <!-- Bonsai leaf texture -->
  <path d="M155 125 Q158 120 162 122" />
  <path d="M165 115 Q168 110 172 112" />
  <path d="M245 118 Q242 114 238 116" />
  <path d="M235 110 Q232 106 228 108" />
  <!-- Small rake tool leaning against border -->
  <path d="M365 170 L358 380" />
  <path d="M350 375 L358 380 L366 375" />
  <path d="M350 375 L350 385" />
  <path d="M358 380 L358 388" />
  <path d="M366 375 L366 385" />
  <!-- Small moss patches -->
  <circle cx="30" cy="200" r="2" />
  <circle cx="35" cy="205" r="1.5" />
  <circle cx="370" cy="200" r="2" />
  <circle cx="375" cy="205" r="1.5" />
  <!-- Tiny pebble accents -->
  <circle cx="200" cy="350" r="1.5" />
  <circle cx="150" cy="372" r="1" />
  <circle cx="250" cy="368" r="1" />
  <circle cx="100" cy="382" r="1.5" />
  <circle cx="300" cy="378" r="1.5" />
</svg>