<svg xmlns="http://www.w3.org/2000/svg" viewBox="0 0 400 400" fill="none" stroke="currentColor" stroke-width="2" stroke-linecap="round" stroke-linejoin="round">
<!-- Cliff face left -->
<path d="M0 60 Q15 58 30 62 Q45 68 55 80 Q62 95 58 115 Q55 135 52 155 Q50 175 48 200 Q46 225 45 250 Q44 275 42 300" />
<path d="M0 55 Q10 52 20 55 Q35 60 42 72 Q48 85 45 105 Q42 125 40 148 Q38 170 36 195 Q35 218 34 242 Q33 265 32 290" />
<!-- Cliff texture left -->
<path d="M15 70 Q22 68 28 74" />
<path d="M18 95 Q25 92 30 98" />
<path d="M12 125 Q20 122 25 128" />
<path d="M15 155 Q22 152 28 158" />
<path d="M10 185 Q18 182 24 188" />
<path d="M12 220 Q20 217 25 223" />
<path d="M8 258 Q16 255 22 260" />
<!-- Cliff face right -->
<path d="M400 60 Q385 58 370 62 Q355 68 345 80 Q338 95 342 115 Q345 135 348 155 Q350 175 352 200 Q354 225 355 250 Q356 275 358 300" />
<path d="M400 55 Q390 52 380 55 Q365 60 358 72 Q352 85 355 105 Q358 125 360 148 Q362 170 364 195 Q365 218 366 242 Q367 265 368 290" />
<!-- Cliff texture right -->
<path d="M385 70 Q378 68 372 74" />
<path d="M382 95 Q375 92 370 98" />
<path d="M388 125 Q380 122 375 128" />
<path d="M385 155 Q378 152 372 158" />
<path d="M390 185 Q382 182 376 188" />
<path d="M388 220 Q380 217 375 223" />
<path d="M392 258 Q384 255 378 260" />
<!-- Top of waterfall - water flowing over edge -->
<path d="M55 60 Q80 55 105 58 Q130 62 155 58 Q180 54 200 56 Q220 54 245 58 Q270 62 295 58 Q320 55 345 60" />
<path d="M55 50 Q80 48 105 50 Q140 53 170 50 Q200 48 230 50 Q260 53 295 50 Q320 48 345 50" />
<!-- Main waterfall streams -->
<path d="M80 60 Q78 100 82 140 Q85 180 80 220 Q78 260 82 300" />
<path d="M110 58 Q108 95 112 132 Q115 170 110 208 Q108 245 112 282 Q114 300 115 310" />
<path d="M140 58 Q142 95 138 132 Q136 170 140 208 Q143 245 138 282 Q136 300 138 315" />
<path d="M170 56 Q168 95 172 135 Q175 175 170 215 Q168 255 172 295 Q174 310 175 320" />
<path d="M200 56 Q198 100 202 145 Q205 185 200 225 Q198 265 202 305 Q204 315 205 325" />
<path d="M230 56 Q232 100 228 145 Q225 185 230 225 Q233 265 228 305 Q226 315 225 325" />
<path d="M260 58 Q258 95 262 132 Q265 170 260 208 Q258 245 262 282 Q264 300 262 315" />
<path d="M290 58 Q292 95 288 132 Q285 170 290 208 Q293 245 288 282 Q286 300 288 310" />
<path d="M320 60 Q318 100 322 140 Q325 180 320 220 Q318 260 322 300" />
<!-- Water texture within falls -->
<path d="M90 90 Q95 88 100 92" />
<path d="M150 110 Q155 108 160 112" />
<path d="M210 100 Q215 98 220 102" />
<path d="M270 95 Q275 93 280 97" />
<path d="M95 160 Q100 158 105 162" />
<path d="M180 150 Q185 148 190 152" />
<path d="M240 165 Q245 163 250 167" />
<path d="M310 155 Q315 153 320 157" />
<path d="M85 230 Q90 228 95 232" />
<path d="M155 220 Q160 218 165 222" />
<path d="M215 240 Q220 238 225 242" />
<path d="M285 225 Q290 223 295 227" />
<!-- Mist at the base -->
<path d="M40 310 Q70 300 100 308 Q130 316 160 305 Q190 298 200 305 Q210 298 240 305 Q270 316 300 308 Q330 300 360 310" />
<path d="M30 325 Q65 315 100 322 Q140 330 175 320 Q200 315 225 320 Q260 330 300 322 Q335 315 370 325" />
<path d="M25 340 Q60 332 100 338 Q140 345 180 335 Q200 330 220 335 Q260 345 300 338 Q340 332 375 340" />
<!-- Pool at bottom -->
<path d="M0 355 Q50 348 100 355 Q150 362 200 355 Q250 348 300 355 Q350 362 400 355" />
<path d="M0 370 Q60 364 120 370 Q180 376 240 370 Q300 364 360 370 Q380 372 400 370" />
<path d="M0 385 Q50 380 100 385 Q150 390 200 385 Q250 380 300 385 Q350 390 400 385" />
<!-- Spray droplets -->
<path d="M65 290 Q62 282 65 275 Q68 282 65 290" />
<path d="M125 285 Q122 278 125 272 Q128 278 125 285" />
<path d="M200 280 Q198 273 200 267 Q202 273 200 280" />
<path d="M275 285 Q272 278 275 272 Q278 278 275 285" />
<path d="M335 290 Q332 282 335 275 Q338 282 335 290" />
<!-- Additional spray -->
<path d="M50 275 Q48 270 50 265 Q52 270 50 275" />
<path d="M350 270 Q348 265 350 260 Q352 265 350 270" />
<!-- Ferns on left cliff -->
<path d="M25 140 Q15 130 8 118 Q15 125 22 132" />
<path d="M25 140 Q18 138 10 140 Q18 142 25 140" />
<path d="M25 140 Q20 148 15 158 Q20 150 25 145" />
<path d="M30 200 Q20 190 12 178 Q20 185 28 192" />
<path d="M30 200 Q22 198 14 200 Q22 202 30 200" />
<path d="M30 200 Q25 210 20 220 Q25 212 30 205" />
<path d="M28 260 Q18 252 10 242 Q18 248 26 255" />
<path d="M28 260 Q20 258 12 262 Q20 264 28 260" />
<!-- Ferns on right cliff -->
<path d="M375 140 Q385 130 392 118 Q385 125 378 132" />
<path d="M375 140 Q382 138 390 140 Q382 142 375 140" />
<path d="M375 140 Q380 148 385 158 Q380 150 375 145" />
<path d="M370 200 Q380 190 388 178 Q380 185 372 192" />
<path d="M370 200 Q378 198 386 200 Q378 202 370 200" />
<path d="M372 260 Q382 252 390 242 Q382 248 374 255" />
<path d="M372 260 Q380 258 388 262 Q380 264 372 260" />
<!-- Moss patches -->
<circle cx="22" cy="170" r="3" />
<circle cx="18" cy="175" r="2" />
<circle cx="26" cy="178" r="2.5" />
<circle cx="378" cy="170" r="3" />
<circle cx="382" cy="175" r="2" />
<circle cx="374" cy="178" r="2.5" />
<!-- Rainbow mist particles -->
<circle cx="100" cy="295" r="1.5" />
<circle cx="150" cy="288" r="1" />
<circle cx="200" cy="292" r="1.5" />
<circle cx="250" cy="288" r="1" />
<circle cx="300" cy="295" r="1.5" />
<circle cx="130" cy="302" r="1" />
<circle cx="270" cy="302" r="1" />
<!-- Sparkle dots in mist -->
<circle cx="80" cy="305" r="1" />
<circle cx="170" cy="298" r="1" />
<circle cx="230" cy="300" r="1" />
<circle cx="320" cy="305" r="1" />
</svg>
