<svg xmlns="http://www.w3.org/2000/svg" viewBox="0 0 400 400" fill="none" stroke="currentColor" stroke-width="2" stroke-linecap="round" stroke-linejoin="round">
<!-- Crescent moon -->
<path d="M310 45 Q285 50 268 68 Q252 88 248 112 Q246 138 258 160 Q270 178 290 188 Q275 190 258 182 Q238 170 225 150 Q212 128 212 105 Q215 78 230 58 Q248 40 272 35 Q295 32 310 45" />
<!-- Stars scattered across sky -->
<circle cx="80" cy="30" r="2" />
<circle cx="140" cy="55" r="1.5" />
<circle cx="200" cy="25" r="2" />
<circle cx="50" cy="70" r="1.5" />
<circle cx="170" cy="15" r="1" />
<circle cx="350" cy="25" r="2" />
<circle cx="380" cy="60" r="1.5" />
<circle cx="120" cy="85" r="1" />
<circle cx="360" cy="95" r="1.5" />
<circle cx="30" cy="105" r="1" />
<!-- Twinkling star details -->
<path d="M80 28 L80 32" />
<path d="M78 30 L82 30" />
<path d="M200 23 L200 27" />
<path d="M198 25 L202 25" />
<path d="M350 23 L350 27" />
<path d="M348 25 L352 25" />
<!-- Sleeping figure floating on water -->
<!-- Head -->
<path d="M140 175 Q132 168 130 158 Q130 148 138 140 Q148 135 158 138 Q165 142 168 152 Q170 162 165 170 Q160 178 150 180" />
<!-- Hair flowing in water -->
<path d="M130 158 Q122 155 115 160 Q108 168 102 175 Q95 182 88 185" />
<path d="M130 150 Q120 148 112 155 Q105 162 98 170 Q90 178 82 182" />
<path d="M132 145 Q125 140 118 145 Q110 152 105 160 Q98 168 90 172" />
<!-- Closed eye -->
<path d="M145 152 Q150 148 155 152" />
<!-- Eyelash -->
<path d="M148 148 L148 145" />
<path d="M152 147 L153 144" />
<!-- Nose and lips -->
<path d="M158 155 Q160 158 158 162" />
<path d="M150 168 Q155 170 160 168" />
<!-- Neck -->
<path d="M150 180 Q155 185 160 188" />
<!-- Body/torso -->
<path d="M160 188 Q175 192 195 195 Q220 198 245 200 Q270 202 290 205" />
<path d="M150 180 Q155 190 162 198 Q170 205 182 210 Q200 215 220 218 Q245 220 268 222 Q285 224 295 225" />
<!-- Arms -->
<path d="M170 196 Q165 205 158 212 Q150 218 140 220" />
<path d="M245 200 Q248 195 255 192 Q262 190 270 192" />
<!-- Legs -->
<path d="M290 205 Q305 208 318 212 Q330 218 338 228" />
<path d="M295 225 Q310 225 322 228 Q332 232 340 240" />
<!-- Feet -->
<path d="M338 228 Q345 232 348 240 Q346 245 340 240" />
<!-- Dress/fabric flowing -->
<path d="M182 210 Q180 218 175 225 Q170 232 168 240" />
<path d="M200 215 Q198 222 195 230 Q192 238 190 245" />
<path d="M220 218 Q218 225 215 232 Q212 240 210 248" />
<path d="M245 220 Q242 228 240 235 Q238 242 236 250" />
<!-- Water surface -->
<path d="M0 200 Q20 196 40 200 Q60 204 80 200 Q100 196 120 200 Q140 204 160 200 Q180 196 200 200 Q220 204 240 200 Q260 196 280 200 Q300 204 320 200 Q340 196 360 200 Q380 204 400 200" />
<!-- Lily pads -->
<path d="M40 225 Q48 218 58 220 Q68 222 72 230 Q68 238 58 240 Q48 238 42 232 Q40 228 40 225" />
<path d="M55 230 L50 225" />
<path d="M310 215 Q318 208 328 210 Q338 212 342 220 Q338 228 328 230 Q318 228 312 222 Q310 218 310 215" />
<path d="M325 220 L320 215" />
<path d="M160 240 Q168 233 178 235 Q188 237 192 245 Q188 253 178 255 Q168 253 162 247 Q160 243 160 240" />
<path d="M175 245 L170 240" />
<!-- Lotus flowers -->
<!-- Left lotus -->
<path d="M55 218 Q52 210 55 202 Q58 210 55 218" />
<path d="M55 218 Q48 212 44 205 Q50 210 55 218" />
<path d="M55 218 Q62 212 66 205 Q60 210 55 218" />
<path d="M55 218 Q50 208 52 198 Q54 208 55 218" />
<path d="M55 218 Q60 208 58 198 Q56 208 55 218" />
<!-- Right lotus -->
<path d="M335 210 Q332 202 335 194 Q338 202 335 210" />
<path d="M335 210 Q328 204 324 197 Q330 202 335 210" />
<path d="M335 210 Q342 204 346 197 Q340 202 335 210" />
<!-- Starry reflections in water -->
<circle cx="60" cy="270" r="1.5" />
<circle cx="120" cy="280" r="1" />
<circle cx="180" cy="265" r="1.5" />
<circle cx="250" cy="275" r="1" />
<circle cx="340" cy="260" r="1.5" />
<circle cx="300" cy="290" r="1" />
<circle cx="150" cy="300" r="1.5" />
<circle cx="220" cy="295" r="1" />
<circle cx="80" cy="310" r="1" />
<circle cx="370" cy="285" r="1" />
<!-- Moon reflection in water -->
<path d="M295 250 Q285 255 278 268 Q275 282 280 295 Q285 302 292 308" />
<path d="M305 248 Q298 252 292 262 Q288 275 292 288 Q296 298 302 305" />
<!-- Water ripple lines -->
<path d="M20 235 Q50 230 80 235" />
<path d="M100 240 Q130 235 160 240" />
<path d="M220 238 Q250 233 280 238" />
<path d="M320 242 Q350 237 380 242" />
<path d="M40 260 Q80 255 120 260" />
<path d="M200 258 Q240 253 280 258" />
<path d="M60 285 Q100 280 140 285" />
<path d="M240 282 Q280 277 320 282" />
<path d="M0 310 Q40 305 80 310 Q120 315 160 310" />
<path d="M200 315 Q240 310 280 315 Q320 320 360 315 Q380 312 400 315" />
<!-- Deeper water -->
<path d="M0 340 Q50 335 100 340 Q150 345 200 340 Q250 335 300 340 Q350 345 400 340" />
<path d="M0 365 Q60 360 120 365 Q180 370 240 365 Q300 360 360 365 Q380 367 400 365" />
<path d="M0 390 Q50 386 100 390 Q150 394 200 390 Q250 386 300 390 Q350 394 400 390" />
<!-- Dream wisps/sparkles near figure -->
<circle cx="110" cy="130" r="2" />
<circle cx="95" cy="145" r="1.5" />
<circle cx="125" cy="120" r="1" />
<path d="M100 135 Q105 130 110 135" />
<path d="M85 150 Q90 145 95 150" />
</svg>
