<svg xmlns="http://www.w3.org/2000/svg" viewBox="0 0 400 400" fill="none" stroke="currentColor" stroke-width="2" stroke-linecap="round" stroke-linejoin="round">
<!-- Yin-yang circular boundary -->
<circle cx="200" cy="200" r="145" />
<circle cx="200" cy="200" r="150" />
<!-- Yin-yang dividing curve -->
<path d="M200 50 Q270 125 200 200 Q130 275 200 350" />
<!-- Top koi fish (swimming right/down, in upper half) -->
<!-- Body -->
<path d="M200 65 Q230 70 255 85 Q280 102 290 125 Q298 148 288 168 Q275 185 255 192 Q235 198 215 195 Q195 190 180 178 Q168 165 165 148 Q162 128 172 108 Q185 85 200 65" />
<!-- Head detail -->
<path d="M200 65 Q210 72 218 80" />
<!-- Eye -->
<circle cx="225" cy="95" r="6" />
<circle cx="225" cy="95" r="3" />
<!-- Mouth -->
<path d="M200 70 Q205 68 210 72" />
<!-- Whiskers -->
<path d="M205 72 Q195 65 188 60" />
<path d="M205 75 Q195 72 186 68" />
<!-- Gill line -->
<path d="M240 90 Q238 100 242 110" />
<!-- Scales pattern - upper fish -->
<path d="M230 105 Q238 102 244 108 Q240 114 232 112 Q228 108 230 105" />
<path d="M248 115 Q256 112 262 118 Q258 124 250 122 Q246 118 248 115" />
<path d="M225 120 Q233 117 239 123 Q235 129 227 127 Q223 123 225 120" />
<path d="M242 130 Q250 127 256 133 Q252 139 244 137 Q240 133 242 130" />
<path d="M220 135 Q228 132 234 138 Q230 144 222 142 Q218 138 220 135" />
<path d="M258 140 Q264 138 268 142 Q265 147 259 146 Q256 143 258 140" />
<path d="M235 148 Q242 145 247 150 Q244 155 237 154 Q233 151 235 148" />
<path d="M215 150 Q222 147 227 152 Q224 157 217 156 Q213 153 215 150" />
<path d="M248 155 Q254 153 258 157 Q255 162 249 161 Q246 158 248 155" />
<!-- Dorsal fin -->
<path d="M255 100 Q268 90 278 95 Q272 105 260 108" />
<!-- Pectoral fin -->
<path d="M242 118 Q252 125 248 138 Q242 130 242 118" />
<!-- Tail fin (flowing) -->
<path d="M168 148 Q155 140 145 148 Q140 158 150 165 Q158 168 165 162" />
<path d="M168 148 Q158 152 150 160 Q145 168 155 175 Q162 172 168 165" />
<!-- Tail fin detail lines -->
<path d="M155 148 Q152 155 155 162" />
<path d="M148 155 Q146 162 150 168" />
<!-- Bottom koi fish (swimming left/up, in lower half) -->
<!-- Body -->
<path d="M200 335 Q170 330 145 315 Q120 298 110 275 Q102 252 112 232 Q125 215 145 208 Q165 202 185 205 Q205 210 220 222 Q232 235 235 252 Q238 272 228 292 Q215 315 200 335" />
<!-- Head detail -->
<path d="M200 335 Q190 328 182 320" />
<!-- Eye -->
<circle cx="175" cy="305" r="6" />
<circle cx="175" cy="305" r="3" />
<!-- Mouth -->
<path d="M200 330 Q195 332 190 328" />
<!-- Whiskers -->
<path d="M195 328 Q205 335 212 340" />
<path d="M195 325 Q205 328 214 332" />
<!-- Gill line -->
<path d="M160 310 Q162 300 158 290" />
<!-- Scales pattern - lower fish -->
<path d="M170 295 Q162 298 156 292 Q160 286 168 288 Q172 292 170 295" />
<path d="M152 285 Q144 288 138 282 Q142 276 150 278 Q154 282 152 285" />
<path d="M175 280 Q167 283 161 277 Q165 271 173 273 Q177 277 175 280" />
<path d="M158 270 Q150 273 144 267 Q148 261 156 263 Q160 267 158 270" />
<path d="M180 265 Q172 268 166 262 Q170 256 178 258 Q182 262 180 265" />
<path d="M142 260 Q136 262 132 258 Q135 253 141 254 Q144 257 142 260" />
<path d="M165 252 Q158 255 153 250 Q156 245 163 246 Q167 249 165 252" />
<path d="M185 250 Q178 253 173 248 Q176 243 183 244 Q187 247 185 250" />
<path d="M152 245 Q146 247 142 243 Q145 238 151 239 Q154 242 152 245" />
<!-- Dorsal fin -->
<path d="M145 300 Q132 310 122 305 Q128 295 140 292" />
<!-- Pectoral fin -->
<path d="M158 282 Q148 275 152 262 Q158 270 158 282" />
<!-- Tail fin (flowing) -->
<path d="M232 252 Q245 260 255 252 Q260 242 250 235 Q242 232 235 238" />
<path d="M232 252 Q242 248 250 240 Q255 232 245 225 Q238 228 232 235" />
<!-- Tail fin detail lines -->
<path d="M245 252 Q248 245 245 238" />
<path d="M252 245 Q254 238 250 232" />
<!-- Yin-yang small circles (eyes of the yin-yang) -->
<circle cx="200" cy="125" r="12" />
<circle cx="200" cy="275" r="12" />
<!-- Ripples around the fish -->
<path d="M80 150 Q90 145 100 150" />
<path d="M65 170 Q78 164 92 170" />
<path d="M300 250 Q310 245 320 250" />
<path d="M308 230 Q322 224 335 230" />
<!-- Water ripples around the circle -->
<path d="M50 195 Q45 190 38 195 Q45 200 50 195" />
<path d="M350 195 Q355 190 362 195 Q355 200 350 195" />
<path d="M195 45 Q190 38 195 32 Q200 38 195 45" />
<path d="M195 355 Q190 362 195 368 Q200 362 195 355" />
<!-- Bubbles -->
<circle cx="280" cy="120" r="3" />
<circle cx="295" cy="108" r="2" />
<circle cx="288" cy="95" r="1.5" />
<circle cx="120" cy="280" r="3" />
<circle cx="105" cy="292" r="2" />
<circle cx="112" cy="305" r="1.5" />
<!-- Outer decorative ripples -->
<path d="M60 100 Q75 92 90 100" />
<path d="M310 300 Q325 292 340 300" />
<path d="M55 250 Q48 242 40 250" />
<path d="M345 150 Q352 142 360 150" />
<!-- Small water dots -->
<circle cx="70" cy="130" r="1" />
<circle cx="330" cy="270" r="1" />
<circle cx="85" cy="220" r="1" />
<circle cx="315" cy="180" r="1" />
</svg>
