<svg xmlns="http://www.w3.org/2000/svg" viewBox="0 0 400 400" fill="none" stroke="currentColor" stroke-width="2" stroke-linecap="round" stroke-linejoin="round">
<!-- Main river channel winding from top to bottom -->
<path d="M120 0 Q140 30 160 50 Q190 80 170 110 Q150 140 130 160 Q110 180 120 210 Q135 240 160 260 Q190 280 210 310 Q230 340 250 370 Q260 390 270 400" />
<path d="M180 0 Q195 25 210 50 Q230 75 220 105 Q210 135 190 155 Q170 175 175 205 Q185 235 210 255 Q240 275 260 305 Q275 335 290 365 Q300 385 310 400" />
<!-- River bank left side -->
<path d="M100 0 Q115 20 130 35 Q150 55 140 80 Q125 105 105 130 Q85 155 90 185 Q100 215 125 240 Q150 260 170 285 Q185 310 195 340 Q205 370 215 400" />
<!-- River bank right side -->
<path d="M200 0 Q220 20 240 45 Q260 65 250 95 Q240 120 225 145 Q205 170 210 200 Q220 230 245 252 Q270 272 290 300 Q310 330 325 360 Q335 380 345 400" />
<!-- Swirling eddies in the river -->
<path d="M155 65 Q165 60 170 68 Q172 78 162 80 Q152 78 155 65" />
<path d="M145 130 Q155 122 162 130 Q165 142 155 146 Q143 142 145 130" />
<path d="M185 190 Q195 185 200 192 Q202 202 192 205 Q182 200 185 190" />
<path d="M215 270 Q225 265 230 272 Q232 280 224 284 Q214 280 215 270" />
<path d="M240 340 Q250 335 255 342 Q257 350 249 354 Q239 350 240 340" />
<!-- Small eddy spirals -->
<path d="M160 70 Q163 72 161 75 Q158 73 160 70" />
<path d="M150 135 Q153 137 151 140 Q148 138 150 135" />
<path d="M190 195 Q193 197 191 200 Q188 198 190 195" />
<!-- Rocks along the banks -->
<path d="M95 50 Q100 42 108 44 Q114 48 112 56 Q106 60 98 58 Q93 55 95 50" />
<path d="M80 120 Q88 114 96 118 Q100 126 94 132 Q86 134 80 128 Q77 124 80 120" />
<path d="M245 80 Q252 74 260 78 Q264 86 258 92 Q250 93 244 88 Q242 84 245 80" />
<path d="M230 160 Q236 155 242 158 Q246 164 241 170 Q234 172 229 166 Q227 162 230 160" />
<path d="M100 240 Q106 234 114 237 Q118 244 112 250 Q104 252 99 246 Q97 242 100 240" />
<path d="M275 310 Q282 304 290 307 Q294 314 288 320 Q280 322 275 316 Q273 312 275 310" />
<!-- Small pebbles -->
<circle cx="108" cy="90" r="3" />
<circle cx="235" cy="120" r="2.5" />
<circle cx="90" cy="180" r="3" />
<circle cx="220" cy="230" r="2" />
<circle cx="260" cy="290" r="3" />
<circle cx="190" cy="330" r="2.5" />
<!-- Reeds on left bank -->
<path d="M70 140 Q68 120 72 100 Q74 90 72 80" />
<path d="M72 80 Q68 76 72 72 Q76 76 72 80" />
<path d="M60 150 Q58 130 62 110 Q64 100 62 90" />
<path d="M62 90 Q58 86 62 82 Q66 86 62 90" />
<path d="M78 200 Q76 180 80 160" />
<path d="M80 160 Q76 156 80 152 Q84 156 80 160" />
<!-- Reeds on right bank -->
<path d="M260 100 Q258 80 262 60" />
<path d="M262 60 Q258 56 262 52 Q266 56 262 60" />
<path d="M270 140 Q268 120 272 100 Q274 90 272 80" />
<path d="M272 80 Q268 76 272 72 Q276 76 272 80" />
<path d="M300 260 Q298 240 302 220" />
<path d="M302 220 Q298 216 302 212 Q306 216 302 220" />
<!-- Water ripple lines -->
<path d="M140 55 Q148 52 156 55" />
<path d="M130 110 Q140 107 150 110" />
<path d="M155 165 Q165 162 175 165" />
<path d="M165 220 Q175 217 185 220" />
<path d="M200 280 Q210 277 220 280" />
<path d="M230 330 Q240 327 250 330" />
<!-- Current flow lines -->
<path d="M150 30 Q155 35 152 40" />
<path d="M170 90 Q175 95 172 100" />
<path d="M140 150 Q145 155 142 160" />
<path d="M160 210 Q165 215 162 220" />
<path d="M195 265 Q200 270 197 275" />
<path d="M235 320 Q240 325 237 330" />
<!-- Small fish in river -->
<path d="M162 95 Q170 90 178 95 Q170 100 162 95" />
<path d="M158 95 L152 90" />
<path d="M158 95 L152 100" />
<path d="M170 230 Q178 225 186 230 Q178 235 170 230" />
<path d="M166 230 L160 225" />
<path d="M166 230 L160 235" />
<!-- Grassy bank texture left -->
<path d="M75 45 Q72 38 76 32" />
<path d="M65 100 Q62 93 66 87" />
<path d="M55 165 Q52 158 56 152" />
<path d="M85 260 Q82 253 86 247" />
<path d="M100 310 Q97 303 101 297" />
<!-- Grassy bank texture right -->
<path d="M255 50 Q258 43 254 37" />
<path d="M265 110 Q268 103 264 97" />
<path d="M240 195 Q243 188 239 182" />
<path d="M295 335 Q298 328 294 322" />
<!-- Bubbles in water -->
<circle cx="165" cy="50" r="1.5" />
<circle cx="145" cy="115" r="2" />
<circle cx="175" cy="175" r="1.5" />
<circle cx="195" cy="245" r="2" />
<circle cx="225" cy="295" r="1.5" />
<circle cx="245" cy="355" r="2" />
<!-- Waterline shimmer -->
<path d="M135 80 L140 78" />
<path d="M155 145 L160 143" />
<path d="M145 200 L150 198" />
<path d="M180 255 L185 253" />
<path d="M210 315 L215 313" />
<!-- Tiny dots for sand/gravel -->
<circle cx="112" cy="55" r="1" />
<circle cx="92" cy="135" r="1" />
<circle cx="250" cy="85" r="1" />
<circle cx="222" cy="175" r="1" />
<circle cx="108" cy="255" r="1" />
<circle cx="282" cy="325" r="1" />
</svg>
