<svg xmlns="http://www.w3.org/2000/svg" viewBox="0 0 400 400" fill="none" stroke="currentColor" stroke-width="2" stroke-linecap="round" stroke-linejoin="round">
<!-- Left hand -->
<path d="M95 140 Q85 130 80 115 Q78 100 85 90 Q92 82 100 88 Q108 95 105 110 Q103 122 100 130" />
<path d="M100 130 Q95 120 92 105 Q90 92 95 84 Q100 78 106 82 Q112 88 110 102 Q108 115 105 125" />
<path d="M105 125 Q102 115 100 100 Q98 88 102 80 Q108 75 112 80 Q118 88 115 100 Q112 112 110 122" />
<path d="M110 122 Q108 112 108 100 Q108 90 112 84 Q118 80 122 86 Q125 94 122 105 Q120 115 118 122" />
<path d="M95 140 Q90 148 88 158 Q85 170 90 180 Q95 188 105 190 Q115 192 125 188 Q132 182 130 172 Q128 160 120 150 Q118 142 118 122" />
<!-- Left wrist and forearm -->
<path d="M85 170 Q75 185 68 200 Q60 218 55 235" />
<path d="M120 178 Q115 195 110 210 Q105 225 100 240" />
<!-- Right hand -->
<path d="M305 140 Q315 130 320 115 Q322 100 315 90 Q308 82 300 88 Q292 95 295 110 Q297 122 300 130" />
<path d="M300 130 Q305 120 308 105 Q310 92 305 84 Q300 78 294 82 Q288 88 290 102 Q292 115 295 125" />
<path d="M295 125 Q298 115 300 100 Q302 88 298 80 Q292 75 288 80 Q282 88 285 100 Q288 112 290 122" />
<path d="M290 122 Q292 112 292 100 Q292 90 288 84 Q282 80 278 86 Q275 94 278 105 Q280 115 282 122" />
<path d="M305 140 Q310 148 312 158 Q315 170 310 180 Q305 188 295 190 Q285 192 275 188 Q268 182 270 172 Q272 160 280 150 Q282 142 282 122" />
<!-- Right wrist and forearm -->
<path d="M315 170 Q325 185 332 200 Q340 218 345 235" />
<path d="M280 178 Q285 195 290 210 Q295 225 300 240" />
<!-- Vessel / chalice between hands -->
<path d="M145 120 Q150 100 165 88 Q180 80 200 78 Q220 80 235 88 Q250 100 255 120" />
<path d="M145 120 Q148 135 150 148" />
<path d="M255 120 Q252 135 250 148" />
<path d="M150 148 Q155 155 165 160 Q180 165 200 166 Q220 165 235 160 Q245 155 250 148" />
<!-- Vessel rim detail -->
<path d="M142 118 Q150 98 165 85 Q180 76 200 74 Q220 76 235 85 Q250 98 258 118" />
<!-- Vessel decorative lines -->
<path d="M155 108 Q175 102 200 100 Q225 102 245 108" />
<path d="M152 130 Q175 125 200 124 Q225 125 248 130" />
<!-- Water pouring from vessel -->
<path d="M185 166 Q182 180 180 195 Q178 215 182 235 Q185 255 180 275 Q176 295 180 315 Q183 335 178 355" />
<path d="M200 166 Q200 185 200 200 Q200 220 198 240 Q196 260 200 280 Q204 300 200 320 Q196 340 200 360" />
<path d="M215 166 Q218 180 220 195 Q222 215 218 235 Q215 255 220 275 Q224 295 220 315 Q217 335 222 355" />
<!-- Water stream details -->
<path d="M190 180 Q195 178 200 180 Q205 182 210 180" />
<path d="M188 200 Q195 197 202 200 Q209 203 215 200" />
<path d="M185 225 Q192 222 200 225 Q208 228 215 225" />
<path d="M182 250 Q190 247 200 250 Q210 253 218 250" />
<path d="M180 275 Q190 272 200 275 Q210 278 220 275" />
<path d="M178 300 Q190 296 200 300 Q210 304 222 300" />
<path d="M180 325 Q192 321 200 325 Q208 329 220 325" />
<!-- Splashing water droplets -->
<path d="M168 350 Q165 340 168 332 Q171 340 168 350" />
<path d="M232 345 Q235 335 232 327 Q229 335 232 345" />
<path d="M155 360 Q152 352 155 345 Q158 352 155 360" />
<path d="M245 358 Q248 350 245 343 Q242 350 245 358" />
<!-- Ground where water touches -->
<path d="M120 370 Q140 365 160 368 Q180 372 200 368 Q220 364 240 368 Q260 372 280 370" />
<!-- Flowers blooming where water touches ground -->
<!-- Left flower -->
<path d="M140 370 Q135 360 138 352 Q142 356 140 370" />
<path d="M140 370 Q145 358 148 350 Q146 358 140 370" />
<path d="M140 370 Q132 362 128 355 Q134 360 140 370" />
<path d="M140 352 Q138 346 140 340 Q142 346 140 352" />
<circle cx="140" cy="352" r="3" />
<!-- Center flower -->
<path d="M200 368 Q195 358 198 348 Q202 352 200 368" />
<path d="M200 368 Q205 356 208 346 Q206 356 200 368" />
<path d="M200 368 Q192 358 188 350 Q194 356 200 368" />
<path d="M200 368 Q208 358 212 350 Q206 356 200 368" />
<path d="M200 348 Q198 342 200 335 Q202 342 200 348" />
<circle cx="200" cy="348" r="4" />
<!-- Right flower -->
<path d="M260 370 Q255 360 258 352 Q262 356 260 370" />
<path d="M260 370 Q265 358 268 350 Q266 358 260 370" />
<path d="M260 370 Q252 362 248 355 Q254 360 260 370" />
<path d="M260 352 Q258 346 260 340 Q262 346 260 352" />
<circle cx="260" cy="352" r="3" />
<!-- Small sprouting leaves -->
<path d="M165 375 Q162 368 165 362 Q168 368 165 375" />
<path d="M165 375 Q170 370 175 365" />
<path d="M235 375 Q238 368 235 362 Q232 368 235 375" />
<path d="M235 375 Q230 370 225 365" />
<!-- Ground texture -->
<path d="M100 380 Q130 376 160 380 Q180 383 200 380 Q220 377 240 380 Q270 384 300 380" />
<path d="M110 390 Q140 386 170 390 Q200 394 230 390 Q260 386 290 390" />
<!-- Sparkle/energy dots around water stream -->
<circle cx="170" cy="190" r="1.5" />
<circle cx="230" cy="195" r="1.5" />
<circle cx="165" cy="240" r="1" />
<circle cx="235" cy="245" r="1" />
<circle cx="168" cy="290" r="1.5" />
<circle cx="232" cy="285" r="1.5" />
<circle cx="160" cy="335" r="1" />
<circle cx="240" cy="330" r="1" />
<!-- Healing glow dots -->
<circle cx="148" cy="345" r="1" />
<circle cx="210" cy="340" r="1" />
<circle cx="252" cy="345" r="1" />
<circle cx="130" cy="365" r="1" />
<circle cx="270" cy="365" r="1" />
</svg>
