<svg xmlns="http://www.w3.org/2000/svg" viewBox="0 0 400 400" fill="none" stroke="currentColor" stroke-width="2" stroke-linecap="round" stroke-linejoin="round">
<!-- Large eye shape - outer -->
<path d="M40 195 Q100 120 150 110 Q180 105 200 105 Q220 105 250 110 Q300 120 360 195 Q300 270 250 280 Q220 285 200 285 Q180 285 150 280 Q100 270 40 195" />
<!-- Eye shape - inner line for depth -->
<path d="M60 195 Q110 135 155 125 Q180 120 200 120 Q220 120 245 125 Q290 135 340 195 Q290 255 245 265 Q220 270 200 270 Q180 270 155 265 Q110 255 60 195" />
<!-- Iris outer circle -->
<path d="M155 195 Q155 170 170 155 Q185 142 200 142 Q215 142 230 155 Q245 170 245 195 Q245 220 230 235 Q215 248 200 248 Q185 248 170 235 Q155 220 155 195" />
<!-- Iris inner detail ring -->
<path d="M168 195 Q168 178 178 166 Q188 156 200 156 Q212 156 222 166 Q232 178 232 195 Q232 212 222 224 Q212 234 200 234 Q188 234 178 224 Q168 212 168 195" />
<!-- Pupil -->
<path d="M185 195 Q185 183 192 177 Q198 172 200 172 Q202 172 208 177 Q215 183 215 195 Q215 207 208 213 Q202 218 200 218 Q198 218 192 213 Q185 207 185 195" />
<!-- Water waves reflected inside the iris -->
<path d="M162 185 Q172 180 182 185 Q192 190 200 185 Q208 180 218 185 Q228 190 238 185" />
<path d="M165 200 Q175 195 185 200 Q195 205 200 200 Q205 195 215 200 Q225 205 235 200" />
<path d="M162 215 Q172 210 182 215 Q192 220 200 215 Q208 210 218 215 Q228 220 238 215" />
<!-- Light reflection in pupil -->
<circle cx="193" cy="185" r="4" />
<circle cx="207" cy="190" r="2" />
<!-- Detailed eyelashes - upper -->
<path d="M100 155 Q108 130 115 115" />
<path d="M120 138 Q125 112 130 95" />
<path d="M140 125 Q142 100 145 82" />
<path d="M160 115 Q160 90 162 72" />
<path d="M180 110 Q178 88 178 68" />
<path d="M200 105 Q200 82 200 62" />
<path d="M220 110 Q222 88 222 68" />
<path d="M240 115 Q240 90 238 72" />
<path d="M260 125 Q258 100 255 82" />
<path d="M280 138 Q275 112 270 95" />
<path d="M300 155 Q292 130 285 115" />
<!-- Detailed eyelashes - lower -->
<path d="M110 232 Q115 248 118 260" />
<path d="M135 252 Q138 268 140 278" />
<path d="M160 262 Q162 278 163 288" />
<path d="M185 270 Q186 284 186 292" />
<path d="M215 270 Q214 284 214 292" />
<path d="M240 262 Q238 278 237 288" />
<path d="M265 252 Q262 268 260 278" />
<path d="M290 232 Q285 248 282 260" />
<!-- Tears flowing down from eye becoming streams -->
<path d="M175 285 Q172 300 175 315 Q178 330 174 345 Q170 360 172 378 Q173 390 170 400" />
<path d="M200 285 Q198 305 200 320 Q202 335 198 352 Q195 368 198 385 Q200 395 198 400" />
<path d="M225 285 Q228 300 225 315 Q222 330 226 345 Q230 360 228 378 Q227 390 230 400" />
<!-- Tear streams branching -->
<path d="M174 345 Q165 355 158 368 Q152 380 148 400" />
<path d="M226 345 Q235 355 242 368 Q248 380 252 400" />
<path d="M175 370 Q168 380 162 395" />
<path d="M225 370 Q232 380 238 395" />
<!-- Ripple patterns around the eye -->
<path d="M45 195 Q38 190 30 195 Q38 200 45 195" />
<path d="M25 195 Q18 188 8 195 Q18 202 25 195" />
<path d="M355 195 Q362 190 370 195 Q362 200 355 195" />
<path d="M375 195 Q382 188 392 195 Q382 202 375 195" />
<!-- Concentric ripple arcs above eye -->
<path d="M130 70 Q165 50 200 48 Q235 50 270 70" />
<path d="M115 50 Q155 28 200 25 Q245 28 285 50" />
<path d="M100 32 Q145 8 200 5 Q255 8 300 32" />
<!-- Small water droplets scattered -->
<path d="M80 80 Q78 72 80 65 Q82 72 80 80" />
<path d="M320 75 Q318 67 320 60 Q322 67 320 75" />
<path d="M60 130 Q58 124 60 118 Q62 124 60 130" />
<path d="M340 125 Q338 119 340 113 Q342 119 340 125" />
<!-- Iris texture - radiating lines -->
<path d="M200 156 L200 142" />
<path d="M185 160 L178 148" />
<path d="M215 160 L222 148" />
<path d="M172 172 L162 162" />
<path d="M228 172 L238 162" />
<path d="M165 190 L155 188" />
<path d="M235 190 L245 188" />
<path d="M172 218 L162 228" />
<path d="M228 218 L238 228" />
<path d="M185 230 L178 242" />
<path d="M215 230 L222 242" />
<!-- Tiny dots for texture -->
<circle cx="170" cy="180" r="1" />
<circle cx="230" cy="180" r="1" />
<circle cx="175" cy="210" r="1" />
<circle cx="225" cy="210" r="1" />
<circle cx="200" cy="165" r="1" />
<circle cx="200" cy="230" r="1" />
<!-- Decorative dots along tear streams -->
<circle cx="175" cy="305" r="1.5" />
<circle cx="200" cy="310" r="1.5" />
<circle cx="225" cy="305" r="1.5" />
<circle cx="172" cy="355" r="1" />
<circle cx="198" cy="360" r="1" />
<circle cx="228" cy="355" r="1" />
</svg>
