<svg xmlns="http://www.w3.org/2000/svg" viewBox="0 0 400 400" fill="none" stroke="currentColor" stroke-width="2" stroke-linecap="round" stroke-linejoin="round">
<!-- Sky - clouds -->
<path d="M30 40 Q45 30 60 35 Q72 26 88 32 Q100 28 112 38 Q108 46 92 42 Q78 48 65 44 Q50 48 30 40" />
<path d="M280 55 Q298 44 318 50 Q330 42 348 48 Q340 58 325 54 Q310 60 295 56 Q282 60 280 55" />
<!-- Mountains left -->
<path d="M0 190 Q20 185 40 170 Q60 145 80 115 Q95 90 110 75 Q120 68 130 80 Q140 95 150 120 Q160 150 170 175 Q175 185 180 190" />
<!-- Mountain right -->
<path d="M180 190 Q185 185 195 170 Q210 140 225 110 Q238 85 250 70 Q258 65 265 72 Q278 88 290 115 Q305 148 320 175 Q330 185 340 190" />
<!-- Small mountain far right -->
<path d="M310 190 Q320 180 335 160 Q345 148 350 142 Q355 148 362 162 Q370 178 380 190" />
<!-- Mountain ridge details -->
<path d="M85 110 Q92 105 98 112" />
<path d="M105 82 Q110 78 115 84" />
<path d="M215 115 Q222 108 228 118" />
<path d="M245 78 Q250 72 256 80" />
<!-- Trees along the shore -->
<path d="M20 190 Q18 175 22 165 Q24 170 26 165 Q28 172 30 167 Q32 178 28 190" />
<path d="M45 190 Q42 172 48 158 Q50 165 53 160 Q55 168 57 162 Q58 174 54 190" />
<path d="M155 190 Q152 175 156 162 Q158 168 161 164 Q163 172 160 190" />
<path d="M345 190 Q343 178 346 168 Q348 174 350 170 Q352 178 349 190" />
<path d="M370 190 Q368 180 371 172 Q373 177 375 173 Q377 180 374 190" />
<!-- Tree trunks -->
<path d="M24 190 L24 168" />
<path d="M50 190 L50 162" />
<path d="M157 190 L157 165" />
<path d="M347 190 L347 170" />
<path d="M372 190 L372 174" />
<!-- Water line / shore -->
<path d="M0 195 L400 195" />
<path d="M0 190 Q50 192 100 190 Q150 188 200 190 Q250 192 300 190 Q350 188 400 190" />
<!-- Single leaf on water surface -->
<path d="M195 195 Q198 188 203 185 Q210 187 214 193 Q208 197 202 198 Q198 198 195 195" />
<path d="M203 185 L204 195" />
<!-- Ripples from the leaf -->
<path d="M185 202 Q200 199 215 202" />
<path d="M178 208 Q200 204 222 208" />
<path d="M170 215 Q200 210 230 215" />
<path d="M160 223 Q200 217 240 223" />
<path d="M148 232 Q200 224 252 232" />
<!-- Mountain reflection in water - left mountain (inverted, slightly wavy) -->
<path d="M0 200 Q20 205 40 218 Q60 242 80 270 Q95 294 110 308 Q120 315 130 305 Q140 290 150 268 Q160 240 170 218 Q175 208 180 200" />
<!-- Mountain reflection - right mountain -->
<path d="M180 200 Q185 205 195 218 Q210 248 225 278 Q238 302 250 316 Q258 322 265 314 Q278 298 290 272 Q305 240 320 215 Q330 208 340 200" />
<!-- Small mountain reflection -->
<path d="M310 200 Q320 210 335 228 Q345 240 350 245 Q355 240 362 226 Q370 212 380 200" />
<!-- Tree reflections (inverted, wavy) -->
<path d="M20 200 Q18 215 22 225 Q24 220 26 225 Q28 218 30 223 Q32 212 28 200" />
<path d="M45 200 Q42 218 48 232 Q50 225 53 230 Q55 222 57 228 Q58 216 54 200" />
<path d="M155 200 Q152 215 156 228 Q158 222 161 226 Q163 218 160 200" />
<path d="M345 200 Q343 212 346 222 Q348 216 350 220 Q352 212 349 200" />
<path d="M370 200 Q368 210 371 218 Q373 213 375 217 Q377 210 374 200" />
<!-- Subtle water texture lines -->
<path d="M20 240 Q40 238 60 240" />
<path d="M100 252 Q120 250 140 252" />
<path d="M220 245 Q240 243 260 245" />
<path d="M300 255 Q320 253 340 255" />
<path d="M50 270 Q70 268 90 270" />
<path d="M260 275 Q280 273 300 275" />
<path d="M120 290 Q140 288 160 290" />
<path d="M200 295 Q220 293 240 295" />
<!-- Additional ripple effects -->
<path d="M80 310 Q110 307 140 310" />
<path d="M230 315 Q260 312 290 315" />
<path d="M130 330 Q170 326 210 330" />
<path d="M60 345 Q100 342 140 345" />
<path d="M250 340 Q290 337 330 340" />
<!-- Deeper water lines -->
<path d="M0 360 Q50 357 100 360 Q150 363 200 360 Q250 357 300 360 Q350 363 400 360" />
<path d="M0 380 Q60 376 120 380 Q180 384 240 380 Q300 376 360 380 Q380 382 400 380" />
<!-- Small details in mountains -->
<path d="M70 130 Q75 128 80 132" />
<path d="M130 88 L135 92" />
<path d="M230 130 Q235 128 240 132" />
<path d="M260 85 L265 90" />
<!-- Distant birds -->
<path d="M145 50 Q150 45 155 50" />
<path d="M160 48 Q165 43 170 48" />
<path d="M230 38 Q235 33 240 38" />
</svg>
