<svg xmlns="http://www.w3.org/2000/svg" viewBox="0 0 400 400" fill="none" stroke="currentColor" stroke-width="2" stroke-linecap="round" stroke-linejoin="round">
<!-- Central lotus flower in bloom -->
<!-- Outer petals layer 1 -->
<path d="M200 155 Q188 140 180 120 Q175 100 182 85 Q190 92 195 110 Q198 130 200 155" />
<path d="M200 155 Q212 140 220 120 Q225 100 218 85 Q210 92 205 110 Q202 130 200 155" />
<path d="M200 155 Q175 148 158 138 Q140 125 138 110 Q148 112 160 122 Q175 135 200 155" />
<path d="M200 155 Q225 148 242 138 Q260 125 262 110 Q252 112 240 122 Q225 135 200 155" />
<path d="M200 155 Q168 155 148 152 Q128 148 120 138 Q130 135 145 140 Q165 148 200 155" />
<path d="M200 155 Q232 155 252 152 Q272 148 280 138 Q270 135 255 140 Q235 148 200 155" />
<!-- Inner petals layer 2 -->
<path d="M200 155 Q192 145 188 130 Q185 115 190 105 Q195 110 196 125 Q198 140 200 155" />
<path d="M200 155 Q208 145 212 130 Q215 115 210 105 Q205 110 204 125 Q202 140 200 155" />
<path d="M200 155 Q185 150 172 145 Q160 138 158 128 Q165 130 175 138 Q188 148 200 155" />
<path d="M200 155 Q215 150 228 145 Q240 138 242 128 Q235 130 225 138 Q212 148 200 155" />
<!-- Lotus center -->
<circle cx="200" cy="158" r="8" />
<circle cx="200" cy="158" r="4" />
<!-- Lotus center texture dots -->
<circle cx="196" cy="155" r="1" />
<circle cx="204" cy="155" r="1" />
<circle cx="200" cy="152" r="1" />
<circle cx="197" cy="160" r="1" />
<circle cx="203" cy="160" r="1" />
<!-- Lotus base/calyx -->
<path d="M175 168 Q185 162 200 160 Q215 162 225 168" />
<path d="M170 172 Q182 165 200 163 Q218 165 230 172" />
<!-- Stem going into water -->
<path d="M200 172 Q198 180 200 190 Q202 198 200 205" />
<!-- Large lily pads -->
<!-- Lily pad 1 - left front -->
<path d="M85 210 Q95 195 115 190 Q135 188 150 195 Q162 205 160 220 Q155 235 140 242 Q120 246 102 240 Q88 232 85 218 Q84 214 85 210" />
<path d="M120 215 L108 200" />
<!-- Lily pad vein lines -->
<path d="M120 215 Q115 208 108 205" />
<path d="M120 215 Q125 205 128 198" />
<path d="M120 215 Q130 210 140 205" />
<path d="M120 215 Q110 218 100 220" />
<path d="M120 215 Q125 222 130 230" />
<path d="M120 215 Q115 225 112 234" />
<!-- Lily pad 2 - right front -->
<path d="M250 220 Q260 205 280 200 Q300 198 315 205 Q327 215 325 230 Q320 245 305 252 Q285 256 267 250 Q253 242 250 228 Q249 224 250 220" />
<path d="M285 225 L273 210" />
<!-- Lily pad vein lines -->
<path d="M285 225 Q280 218 273 215" />
<path d="M285 225 Q290 215 293 208" />
<path d="M285 225 Q295 220 305 215" />
<path d="M285 225 Q275 228 265 230" />
<path d="M285 225 Q290 232 295 240" />
<path d="M285 225 Q280 235 277 244" />
<!-- Lily pad 3 - back left -->
<path d="M50 170 Q58 158 72 155 Q88 153 100 160 Q108 168 106 178 Q102 188 90 192 Q76 194 64 190 Q54 184 52 176 Q50 173 50 170" />
<path d="M76 172 L68 162" />
<path d="M76 172 Q72 166 66 164" />
<path d="M76 172 Q80 164 84 160" />
<path d="M76 172 Q84 170 92 168" />
<path d="M76 172 Q70 176 64 180" />
<!-- Lily pad 4 - back right -->
<path d="M310 175 Q318 163 332 160 Q348 158 360 165 Q368 173 366 183 Q362 193 350 197 Q336 199 324 195 Q314 189 312 181 Q310 178 310 175" />
<path d="M336 177 L328 167" />
<path d="M336 177 Q332 171 326 169" />
<path d="M336 177 Q340 169 344 165" />
<path d="M336 177 Q344 175 352 173" />
<path d="M336 177 Q330 181 324 185" />
<!-- Dragonfly hovering -->
<path d="M260 120 Q265 118 270 115 Q275 112 280 112" />
<path d="M260 120 Q265 122 270 125 Q275 128 280 128" />
<path d="M260 120 Q252 116 245 114 Q240 113 235 115" />
<path d="M260 120 Q252 124 245 126 Q240 127 235 125" />
<!-- Dragonfly body -->
<path d="M260 120 L290 120" />
<path d="M290 120 Q295 118 300 120 Q295 122 290 120" />
<!-- Dragonfly head -->
<circle cx="258" cy="120" r="3" />
<!-- Dragonfly wing veins -->
<path d="M265 116 Q268 114 272 114" />
<path d="M265 124 Q268 126 272 126" />
<!-- Concentric ripples from lotus -->
<path d="M172 200 Q186 196 200 198 Q214 200 228 198" />
<path d="M158 210 Q178 204 200 208 Q222 212 242 208" />
<path d="M142 222 Q170 214 200 218 Q230 222 258 218" />
<path d="M125 235 Q160 226 200 230 Q240 234 275 228" />
<path d="M108 248 Q150 238 200 242 Q250 246 292 240" />
<!-- Concentric ripples extending further -->
<path d="M88 260 Q140 250 200 255 Q260 260 312 252" />
<path d="M68 272 Q130 262 200 268 Q270 274 332 264" />
<!-- Reeds on left side -->
<path d="M15 260 Q12 230 16 200 Q18 180 15 160 Q13 145 16 130" />
<path d="M16 130 Q12 125 16 120 Q20 125 16 130" />
<path d="M28 265 Q25 238 30 210 Q32 192 28 175 Q26 162 30 148" />
<path d="M30 148 Q26 143 30 138 Q34 143 30 148" />
<path d="M40 268 Q38 245 42 222 Q44 205 40 190 Q38 178 42 165" />
<path d="M42 165 Q38 160 42 155 Q46 160 42 165" />
<!-- Reeds on right side -->
<path d="M370 265 Q372 238 368 210 Q366 192 370 175 Q372 162 368 148" />
<path d="M368 148 Q372 143 368 138 Q364 143 368 148" />
<path d="M382 262 Q385 235 380 208 Q378 190 382 172 Q384 158 380 142" />
<path d="M380 142 Q384 137 380 132 Q376 137 380 142" />
<path d="M392 258 Q395 240 390 220 Q388 208 392 195" />
<path d="M392 195 Q396 190 392 185 Q388 190 392 195" />
<!-- Water surface texture -->
<path d="M10 285 Q30 282 50 285" />
<path d="M340 280 Q360 277 380 280" />
<path d="M30 300 Q60 296 90 300" />
<path d="M310 295 Q340 291 370 295" />
<path d="M0 320 Q40 315 80 320 Q120 325 160 320" />
<path d="M240 318 Q280 313 320 318 Q360 323 400 318" />
<path d="M0 345 Q50 340 100 345 Q150 350 200 345 Q250 340 300 345 Q350 350 400 345" />
<path d="M0 370 Q60 365 120 370 Q180 375 240 370 Q300 365 360 370 Q380 372 400 370" />
<path d="M0 395 Q50 390 100 395 Q150 400 200 395 Q250 390 300 395 Q350 400 400 395" />
<!-- Tiny water insects/skaters -->
<path d="M180 275 L175 272" />
<path d="M180 275 L185 272" />
<path d="M180 275 L175 278" />
<path d="M180 275 L185 278" />
<!-- Small bubbles -->
<circle cx="195" cy="195" r="1.5" />
<circle cx="205" cy="192" r="1" />
<circle cx="130" cy="250" r="1" />
<circle cx="270" cy="258" r="1" />
</svg>
